<?xml version="1.0" standalone="no"?>
<!DOCTYPE svg PUBLIC "-//W3C//DTD SVG 1.1//EN" "http://www.w3.org/Graphics/SVG/1.1/DTD/svg11.dtd" >
<svg>
<metadata>
Created by FontForge 20090914 at Sun Dec 13 21:56:17 2015
 By www-data
Copyright (c) 2010 by Julia Petretta (www.juliapetretta.com), with Reserved Font Name "Kreon".
</metadata>
<defs>
<font id="Kreon-Bold" horiz-adv-x="499" >
  <font-face 
    font-family="Kreon"
    font-weight="700"
    font-stretch="normal"
    units-per-em="1000"
    panose-1="2 0 5 6 0 0 0 2 0 4"
    ascent="800"
    descent="-200"
    x-height="491"
    cap-height="690"
    bbox="-30 -286 988 974.002"
    underline-thickness="50"
    underline-position="-50"
    unicode-range="U+0020-U+20AC"
  />
<missing-glyph horiz-adv-x="157" 
 />
    <glyph glyph-name=".notdef" horiz-adv-x="157" 
 />
    <glyph glyph-name="space" unicode=" " horiz-adv-x="240" 
 />
    <glyph glyph-name="space" unicode="&#xa0;" horiz-adv-x="240" 
 />
    <glyph glyph-name="exclam" unicode="!" horiz-adv-x="276" 
d="M97 247l-39 428l144 14l21 -38l-48 -404h-78zM70 63c0 18.667 6.66699 34.334 20 47.001s29.166 19 47.499 19s34 -6.33301 47 -19s19.5 -28.334 19.5 -47.001s-6.5 -34.5 -19.5 -47.5s-28.667 -19.5 -47 -19.5s-34.166 6.5 -47.499 19.5s-20 28.833 -20 47.5z" />
    <glyph glyph-name="quotedbl" unicode="&#x22;" horiz-adv-x="371" 
d="M28 689l123 10l17 -30l-29 -227h-75zM199 689l123 10l17 -30l-29 -227h-75z" />
    <glyph glyph-name="numbersign" unicode="#" horiz-adv-x="675" 
d="M355 512h78l52 158h110l13 -14l-47 -144h75c4 0 6 -2.66699 6 -8v-97h-116l-39 -119h107c4 0 6 -3 6 -9v-96h-147l-44 -135h-107l-16 13l40 122h-82l-45 -135h-107l-16 13l41 122h-70l-18 71l18 34h105l40 119h-114l-18 72l18 33h150l53 158h109l14 -14zM280 288h80
l39 119h-79z" />
    <glyph glyph-name="dollar" unicode="$" horiz-adv-x="511" 
d="M214 -154l-0.00292969 152c-50 4 -105.667 18.667 -167 44l-14 190h87l31 -117c28 -9.33301 58.333 -14 91 -14s57.834 7.66699 75.501 23s26.5 37.666 26.5 66.999c0 34 -25.333 62.333 -76 85c-14 6.66699 -31.167 14.167 -51.5 22.5s-42 18.5 -65 30.5
s-42.833 26 -59.5 42c-36.667 34 -55 78 -55 132c0 50.667 17.333 92.667 52 126c32.667 31.333 74.334 51 125.001 59v119h99v-115c50.667 -4 97 -14.333 139 -31l15 -187h-84l-45 103c-19.333 7.33301 -42.666 11 -69.999 11s-49.833 -6 -67.5 -18s-26.5 -31 -26.5 -57
c0 -24.667 13.333 -45.334 40 -62.001c13.333 -8 29.333 -16.167 48 -24.5s39.334 -18.166 62.001 -29.499c47.333 -24 85.333 -51.5 114 -82.5s43 -68.167 43 -111.5c0 -57.333 -16.333 -103.666 -49 -138.999c-28.667 -31.333 -68.334 -52 -119.001 -62v-156h-99z" />
    <glyph glyph-name="percent" unicode="%" horiz-adv-x="823" 
d="M593 242.5c-8 -17 -12 -38 -12 -63s4 -46.167 12 -63.5s20.5 -26 37.5 -26s29.667 8.66699 38 26s12.5 38.5 12.5 63.5s-4.16699 46 -12.5 63s-21 25.5 -38 25.5s-29.5 -8.5 -37.5 -25.5zM465 180c0 51.333 15.667 94.5 47 129.5s71 52.5 119 52.5
c48.667 0 87.667 -16 117 -48c31.333 -34 47 -78.667 47 -134c0 -51.333 -15.667 -95 -47 -131c-30 -35.333 -69 -53 -117 -53s-87.667 17.667 -119 53s-47 79 -47 131zM254 0h-124l-10 13l444 678h124l10 -14zM156 579.5c-8 -17 -12 -38 -12 -63s4 -46.167 12 -63.5
s20.5 -26 37.5 -26s29.667 8.66699 38 26s12.5 38.5 12.5 63.5s-4.16699 46 -12.5 63s-21 25.5 -38 25.5s-29.5 -8.5 -37.5 -25.5zM28 517c0 51.333 15.667 94.499 47 129.499s71 52.5 119 52.5c48.667 0 88 -16.333 118 -49c30.667 -33.333 46 -77.666 46 -132.999
c0 -51.333 -15.333 -95 -46 -131c-30.667 -35.333 -70 -53 -118 -53s-87.667 17.667 -119 53s-47 79 -47 131z" />
    <glyph glyph-name="ampersand" unicode="&#x26;" horiz-adv-x="710" 
d="M439 587c0 -71.333 -38.998 -141 -116.998 -209l23.5 -28c7.66699 -9.33301 16.5 -19.333 26.5 -30c28.667 -32 53.667 -58.667 75 -80c10.667 22.667 18.667 47.334 24 74.001h-47l-21 85h191l15 -16c-10.667 -77.333 -35.334 -150 -74.001 -218l-4 -8
c34 -32.667 56.333 -52 67 -58l44 49l76 -96c-9.33301 -12.667 -23.333 -24.834 -42 -36.501s-46.334 -17.5 -83.001 -17.5c-61.333 0 -110.333 18.333 -147 55c-47.333 -38 -104.666 -57 -171.999 -57c-68.667 0 -125.334 16.667 -170.001 50
c-50.667 38.667 -76 94.167 -76 166.5s38.667 134.833 116 187.5c-37.333 54.667 -56 106.334 -56 155.001c0 79.333 31.333 133.666 94 162.999c24.667 11.333 56 17 94 17c52 0 92.167 -13.667 120.5 -41s42.5 -63 42.5 -107zM208.002 320
c-32.667 -32.667 -49 -69.333 -49 -110c0 -31.333 11 -58 33 -80c22.667 -22.667 50.5 -34 83.5 -34s63.5 11.333 91.5 34c-42 43.333 -80.333 88.333 -115 135zM252.002 471.001c42.667 39.333 64 75.666 64 108.999c0 16 -4.66699 29.167 -14 39.5s-22.5 15.5 -39.5 15.5
s-30.333 -5.66699 -40 -17s-14.5 -24.666 -14.5 -39.999c0 -27.333 14.667 -63 44 -107z" />
    <glyph glyph-name="quotesingle" unicode="'" horiz-adv-x="203" 
d="M30 659l123 10l17 -30l-29 -227h-75z" />
    <glyph glyph-name="parenleft" unicode="(" horiz-adv-x="310" 
d="M183 291c0 -142.667 33 -293.667 99 -453h-126c-72.667 152 -109 302.667 -109 452c0 96 13 190 39 282c18 62 41.333 118.667 70 170h126c-42.667 -80.667 -72.667 -181.667 -90 -303c-6 -46 -9 -95.333 -9 -148z" />
    <glyph glyph-name="parenright" unicode=")" horiz-adv-x="311" 
d="M264 290c0 -148 -36.667 -298.667 -110 -452h-126c66 159.333 99 310.333 99 453c0 93.333 -11 184.666 -33 273.999c-16 66 -38 125 -66 177h126c30 -53.333 52 -104.666 66 -153.999c29.333 -102.667 44 -202 44 -298z" />
    <glyph glyph-name="asterisk" unicode="*" horiz-adv-x="367" 
d="M206 608l83 71l50 -44l-10 -33l-104 -34l109 -36l-15 -64l-32 -9l-81 69l21 -107l-63 -21l-23 24l20 103l-81 -71l-53 45l11 32l99 33l-102 36l13 67l33 8l80 -70l-21 108l64 21l23 -24zM178 559l11 1l4 7l-5 9l-9 -1l-5 -9z" />
    <glyph glyph-name="plus" unicode="+" horiz-adv-x="431" 
d="M258 558v-158h142v-86h-142v-173h-74l-13 7v166h-142v73l7 13h135v158h87z" />
    <glyph glyph-name="comma" unicode="," horiz-adv-x="234" 
d="M178 133c5.33301 -21.333 8 -46.499 8 -75.499s-2.66699 -54.167 -8 -75.5s-12 -41.333 -20 -60c-14.667 -34.667 -33 -66.334 -55 -95.001l-84 39l-3 11l51 112l-26 125z" />
    <glyph glyph-name="hyphen" unicode="-" horiz-adv-x="423" 
d="M53 250v82l18 12h292c4 0 6 -2.33301 6 -7v-87h-316z" />
    <glyph glyph-name="period" unicode="." horiz-adv-x="211" 
d="M38 63c0 18.667 6.66699 34.334 20 47.001s29.166 19 47.499 19s34 -6.33301 47 -19s19.5 -28.334 19.5 -47.001s-6.5 -34.5 -19.5 -47.5s-28.667 -19.5 -47 -19.5s-34.166 6.5 -47.499 19.5s-20 28.833 -20 47.5z" />
    <glyph glyph-name="slash" unicode="/" horiz-adv-x="486" 
d="M148 0h-125l-3 13l318 678h128l-1 -14z" />
    <glyph glyph-name="zero" unicode="0" horiz-adv-x="590" 
d="M37 343c0 155.333 45.668 261.002 137.001 317.002c32.667 20 72.667 30 120 30c88 0 154.667 -36 200 -108c39.333 -62.667 59 -142.334 59 -239.001c0 -96 -19.667 -175.333 -59 -238c-44.667 -72.667 -111.334 -109 -200.001 -109c-88 0 -154.667 36.333 -200 109
c-38 61.333 -57 140.666 -57 237.999zM175.001 343.002c0 -66.667 5.66797 -115.667 17.001 -147s24.833 -55 40.5 -71s36.334 -24 62.001 -24s46.334 8 62.001 24s27.834 36 36.501 60c14.667 40.667 22 93.334 22 158.001s-5.83301 113.167 -17.5 145.5
s-25.334 56.5 -41.001 72.5s-36.334 24 -62.001 24s-46.334 -8 -62.001 -24s-27.834 -36 -36.501 -60c-14 -38.667 -21 -91.334 -21 -158.001z" />
    <glyph glyph-name="one" unicode="1" horiz-adv-x="365" 
d="M347 38l-1 -37h-309l-3 82l99 15v457l-93 -17l-20 87l229 69l15 -9v-592l85 -13c0 -4 -0.333008 -10 -1 -18z" />
    <glyph glyph-name="two" unicode="2" horiz-adv-x="538" 
d="M53 0l-14.998 81.0039c9.33301 11.333 23.166 26.5 41.499 45.5l60 64l67 76c23 27 43.5 54.167 61.5 81.5c42.667 62 64 110.167 64 144.5s-8.16699 58.166 -24.5 71.499s-34.166 20 -53.499 20c-30.667 0 -53.334 -3.33301 -68.001 -10l-44 -104l-128 65
c40 71.333 97 118.666 171 141.999c25.333 8 50.833 12 76.5 12s50.667 -3.5 75 -10.5s46.166 -17.833 65.499 -32.5c45.333 -34.667 68 -83.334 68 -146.001c0 -82.667 -56.333 -182.334 -169 -299.001l-55.5 -55.5l-41.5 -40.5h187l41 110h78l-22 -215h-435z" />
    <glyph glyph-name="three" unicode="3" horiz-adv-x="522" 
d="M17 535c56.667 103.333 138.998 154.999 246.998 154.999c54 0 100 -15 138 -45c45.333 -35.333 68 -82 68 -140c0 -37.333 -10 -70.666 -30 -99.999c-21.333 -30.667 -48.666 -49.334 -81.999 -56.001c34 -7.33301 59.333 -18.666 76 -33.999
c33.333 -30.667 50 -68.667 50 -114c0 -64.667 -25.333 -116.334 -76 -155.001c-44 -33.333 -95.667 -50 -155 -50c-53.333 0 -102.333 8.66699 -147 26c-32.667 12.667 -59.667 29.667 -81 51l71 103c21.333 -20 44.333 -37.667 69 -53s50.5 -23 77.5 -23s46.833 4 59.5 12
s22.334 17.333 29.001 28c10 15.333 15 29.833 15 43.5s-1.66699 26.334 -5 38.001s-10 22.5 -20 32.5c-24 24 -63.667 36 -119 36h-67v105h47c99.333 0 149 35 149 105c0 28.667 -10 50.667 -30 66c-16.667 12.667 -33 19 -49 19c-33.333 0 -56 -2.33301 -68 -7l-46 -108z
" />
    <glyph glyph-name="four" unicode="4" horiz-adv-x="539" 
d="M500 62c0 -35.333 1 -56 3 -62h-351v83l143 15v89h-262l-38 88l283 416h147v-399h78v-105h-78v-93l75 -13v-19zM295 292v257l-178 -257h178z" />
    <glyph glyph-name="five" unicode="5" horiz-adv-x="517" 
d="M173 372c-29.333 0 -62.334 -5.66797 -99.001 -17.001v303l30 33h363v-106h-262v-115c12 1.33301 30 2 54 2s50.833 -5.33301 80.5 -16s55.167 -26 76.5 -46c44.667 -42 67 -98.667 67 -170c0 -76 -25 -136 -75 -180c-48 -42.667 -110.667 -64 -188 -64
c-88 0 -157.667 25.667 -209 77l60 98c26 -31.333 57.667 -53 95 -65c13.333 -4 28.5 -6 45.5 -6s33.833 3.33301 50.5 10s31.334 16 44.001 28c26 26.667 39 59.667 39 99c0 42.667 -16.333 76.334 -49 101.001c-30.667 22.667 -71.667 34 -123 34z" />
    <glyph glyph-name="six" unicode="6" horiz-adv-x="554" 
d="M202 664c34.667 18 70.1699 27.166 106.503 27.499s65.666 -3.5 87.999 -11.5s41.166 -17.333 56.499 -28c22.667 -16.667 42.667 -38 60 -64l-115 -74l-49 68c-12 3.33301 -25.333 5 -40 5s-29.5 -4.16699 -44.5 -12.5s-29.167 -21.166 -42.5 -38.499
c-30 -40 -46.667 -92.667 -50 -158c15.333 17.333 36 31 62 41s52.167 15 78.5 15s51.666 -4.16699 75.999 -12.5s46.166 -20.833 65.499 -37.5c45.333 -39.333 68 -93.333 68 -162c0 -67.333 -20.667 -122 -62 -164c-40 -41.333 -95.333 -62 -166 -62
c-90 0 -157.333 36.667 -202 110c-37.333 62 -56 143.333 -56 244c0 96.667 25.667 177 77 241c24.667 30.667 54.334 55 89.001 73zM189.003 206.999c20 -70.667 54.3359 -106.001 103.003 -106.001c33.333 0 57.166 11 71.499 33s21.5 45.667 21.5 71s-3 44.833 -9 58.5
s-13.667 25.167 -23 34.5c-18.667 19.333 -40.834 29 -66.501 29s-48.334 -9.66699 -68.001 -29s-29.5 -49.666 -29.5 -90.999z" />
    <glyph glyph-name="seven" unicode="7" horiz-adv-x="455" 
d="M129 567l-21 -113h-84v237h416l18 -26l-207 -665h-136l-11 20l220 547h-195z" />
    <glyph glyph-name="eight" unicode="8" horiz-adv-x="545" 
d="M149 376c-53.333 38 -79.999 86.335 -79.999 145.002c0 58 22.667 103 68 135c38 26.667 84.333 40 139 40c54 0 100 -13 138 -39c44 -30.667 66 -73.667 66 -129c0 -33.333 -9.33301 -62.5 -28 -87.5s-41.334 -47.167 -68.001 -66.5c42.667 -24 71 -44.667 85 -62
c28.667 -35.333 43 -72 43 -110s-6.66699 -69.333 -20 -94s-31.333 -45.334 -54 -62.001c-46 -34 -102 -51 -168 -51c-66.667 0 -122 15.667 -166 47c-47.333 34.667 -71 82 -71 142c0 42 10.167 79.667 30.5 113s48.833 59.666 85.5 78.999zM193.001 264.002
c-14.667 -21.333 -22 -43.333 -22 -66s4.33301 -40.5 13 -53.5s18.667 -22.5 30 -28.5c19.333 -10.667 36.5 -16 51.5 -16s28.333 1.66699 40 5s22.5 9 32.5 17c24 18 36 43.333 36 76c0 39.333 -25.333 72 -76 98l-47 24c-24 -16 -43.333 -34.667 -58 -56zM282.001 424.002
c48.667 37.333 73 73.334 73 108.001c0 20 -6.5 38 -19.5 54s-32.833 24 -59.5 24s-46.834 -7.5 -60.501 -22.5s-20.5 -34.333 -20.5 -58s8.33301 -43.834 25 -60.501s37.334 -31.667 62.001 -45z" />
    <glyph glyph-name="nine" unicode="9" horiz-adv-x="543" 
d="M367 289c-30 -26.667 -68 -40 -114 -40c-64.667 0 -115.667 17.667 -153 53c-40.667 37.333 -61 89.333 -61 156c0 67.333 19 122 57 164c40.667 46 99 69 175 69c78.667 0 139 -35 181 -105c36 -61.333 54 -144 54 -248c0 -97.333 -23.333 -178 -70 -242
c-50 -66.667 -117.333 -100 -202 -100c-64 0 -122 17.333 -174 52c-14 8.66699 -25 17 -33 25l71 94c44.667 -42 93 -64 145 -66c60.667 2 99 39 115 111c4.66699 23.333 7.66699 49 9 77zM262 354c19.333 0 39.167 6.33398 59.5 19.001s35.166 30.667 44.499 54
c-4.66699 76 -23.667 125 -57 147c-12.667 8 -27.667 12 -45 12s-31.666 -3.83301 -42.999 -11.5s-20.333 -17.167 -27 -28.5c-12.667 -21.333 -19 -47.833 -19 -79.5s7 -58.334 21 -80.001s36 -32.5 66 -32.5z" />
    <glyph glyph-name="colon" unicode=":" horiz-adv-x="241" 
d="M54 193c0 18.667 6.66699 34.334 20 47.001s29.166 19 47.499 19s34 -6.33301 47 -19s19.5 -28.334 19.5 -47.001s-6.5 -34.5 -19.5 -47.5s-28.667 -19.5 -47 -19.5s-34.166 6.5 -47.499 19.5s-20 28.833 -20 47.5zM74 408c-13.333 13.333 -20 29.166 -20 47.499
s6.66699 34 20 47s29.166 19.5 47.499 19.5s34 -6.5 47 -19.5s19.5 -28.667 19.5 -47s-6.5 -34.166 -19.5 -47.499s-28.667 -20 -47 -20s-34.166 6.66699 -47.499 20z" />
    <glyph glyph-name="semicolon" unicode=";" horiz-adv-x="248" 
d="M186 133c5.33301 -21.333 8 -46.499 8 -75.499s-2.66699 -54.167 -8 -75.5s-12 -41.333 -20 -60c-14.667 -34.667 -33 -66.334 -55 -95.001l-84 39l-3 11l51 112l-26 125zM78 248.001c-13.333 13.333 -20 29.166 -20 47.499s6.66699 34 20 47s29.166 19.5 47.499 19.5
s34 -6.5 47 -19.5s19.5 -28.667 19.5 -47s-6.5 -34.166 -19.5 -47.499s-28.667 -20 -47 -20s-34.166 6.66699 -47.499 20z" />
    <glyph glyph-name="less" unicode="&#x3c;" horiz-adv-x="415" 
d="M356 471l-226 -132l226 -133v-131l-327 204v121l327 203v-132z" />
    <glyph glyph-name="equal" unicode="=" horiz-adv-x="463" 
d="M54 304h355v-99h-355v99zM54 460h355v-100h-355v100z" />
    <glyph glyph-name="greater" unicode="&#x3e;" horiz-adv-x="415" 
d="M59 603l327 -203v-121l-327 -204v131l226 133l-226 132v132z" />
    <glyph glyph-name="question" unicode="?" horiz-adv-x="429" 
d="M226 247l0.998047 -11l-99 -1c-6.66699 16.667 -10 37 -10 61s3.66699 43.5 11 58.5s16.333 28.667 27 41s22.334 23.666 35.001 33.999s24.334 20.5 35.001 30.5c25.333 24.667 38 48.834 38 72.501s-6.66699 40.667 -20 51s-27 15.5 -41 15.5
c-29.333 0 -51 -2.66699 -65 -8l-25 -96h-81l16 175c62 21.333 120 32 174 32s97.333 -13.833 130 -41.5s49 -64.167 49 -109.5c0 -71.333 -29 -131 -87 -179c-36.667 -30 -60.5 -53.5 -71.5 -70.5s-16.5 -35.167 -16.5 -54.5zM110.998 63c0 18.667 6.5 34.334 19.5 47.001
s28.833 19 47.5 19s34.334 -6.33301 47.001 -19s19 -28.334 19 -47.001s-6.33301 -34.5 -19 -47.5s-28.334 -19.5 -47.001 -19.5s-34.5 6.5 -47.5 19.5s-19.5 28.833 -19.5 47.5z" />
    <glyph glyph-name="at" unicode="@" horiz-adv-x="879" 
d="M548 132c-28 -20.667 -65.3291 -30.998 -111.996 -30.998c-50 0 -93.667 15 -131 45c-46.667 38.667 -70 92.667 -70 162c0 78 28 136.667 84 176c40.667 28 84.834 42 132.501 42s88.834 -8.66699 123.501 -26l27 9l33 -11v-254c0 -18.667 3 -29.834 9 -33.501
s12.333 -5.5 19 -5.5s13.667 3.16699 21 9.5s14.333 16.166 21 29.499c16 32 24 69.833 24 113.5s-6.33301 80.334 -19 110.001s-31 55.167 -55 76.5c-51.333 45.333 -120 68 -206 68c-81.333 0 -150 -25.333 -206 -76c-60 -55.333 -90 -127.333 -90 -216
c0 -92 29.667 -165.333 89 -220c55.333 -51.333 128 -77 218 -77c53.333 0 95.333 7 126 21l23 -4l-36 -116c-34.667 -10.667 -78.834 -16 -132.501 -16s-105.334 9 -155.001 27s-93.167 44.5 -130.5 79.5s-67.166 78.167 -89.499 129.5s-33.5 110.5 -33.5 177.5
s12.333 125.833 37 176.5s57.167 93.167 97.5 127.5s86.166 60.166 137.499 77.499s103.666 26 156.999 26s103.666 -8.66699 150.999 -26s88.666 -41.833 123.999 -73.5s63.166 -69.5 83.499 -113.5s30.5 -89 30.5 -135s-5.33301 -85.5 -16 -118.5
s-25.334 -61.5 -44.001 -85.5c-38.667 -51.333 -87 -77 -145 -77c-43.333 0 -75.666 10.667 -96.999 32zM459.004 186.002c19.333 0 38 6.33398 56 19.001c-0.666992 4.66699 -1 9 -1 13v214c-14.667 6.66699 -31.334 10 -50.001 10
c-33.333 0 -59.166 -10.833 -77.499 -32.5s-27.5 -53.334 -27.5 -95.001s8.83301 -73.5 26.5 -95.5s42.167 -33 73.5 -33z" />
    <glyph glyph-name="A" unicode="A" horiz-adv-x="621" 
d="M349 0v75l80 21l-36 122h-196l-38 -126l88 -16v-76h-239l-13 78l55 18l198 594h124l201 -594l46 -18l-10 -78h-260zM228 323h121l-53 225z" />
    <glyph glyph-name="B" unicode="B" horiz-adv-x="596" 
d="M55 0l-14 85.001l64 15v493l-70 7v90h277c68.667 0 123.667 -17.333 165 -52c39.333 -33.333 59 -76.333 59 -129c0 -42.667 -13.333 -79 -40 -109c-21.333 -24.667 -45.333 -40.334 -72 -47.001c42.667 -11.333 76.667 -30 102 -56s38 -62.667 38 -110
c0 -92 -44 -150.333 -132 -175c-27.333 -8 -57.333 -12 -90 -12h-287zM427 199.001c0 64 -44.333 96 -133 96h-58v-190h74c54.667 0 90.667 16.333 108 49c6 12 9 27 9 45zM373 426.001c17.333 17.333 26 37.1689 26 59.502s-3.16699 39.166 -9.5 50.499
s-14.833 20.666 -25.5 27.999c-21.333 14 -49 21 -83 21h-45v-185h59c34.667 0 60.667 8.66699 78 26z" />
    <glyph glyph-name="C" unicode="C" horiz-adv-x="587" 
d="M417.5 568c-3.66699 8 -6.49316 12.9971 -8.49316 14.9971s-16.333 3 -43 3s-52.334 -5.5 -77.001 -16.5s-46.334 -26.833 -65.001 -47.5c-40 -45.333 -60.667 -103.333 -62 -174c1.33301 -73.333 20.666 -132.666 57.999 -177.999c38.667 -46 88.667 -69 150 -69
c27.333 0 54.666 5 81.999 15s50.666 24.667 69.999 44l42 -89c-30.667 -34.667 -77 -57.667 -139 -69c-20 -4 -46.333 -6 -79 -6s-69.334 7 -110.001 21s-76.334 35 -107.001 63c-67.333 62.667 -101 147.334 -101 254.001c0 110.667 34.667 199.334 104 266.001
c62.667 60.667 138 91 226 91c58 0 114.333 -8 169 -24l20 -207h-81l-32 71z" />
    <glyph glyph-name="D" unicode="D" horiz-adv-x="637" 
d="M39 88l65.001 13v493l-63 8v88h178c187.333 0 307.666 -63.333 360.999 -190c17.333 -42 26 -91 26 -147c0 -113.333 -28.833 -200.5 -86.5 -261.5s-143.5 -91.5 -257.5 -91.5h-209zM235.001 105l19 -1c70.667 0 124.167 20.833 160.5 62.5s54.5 102.5 54.5 182.5
s-20 139.333 -60 178s-98 58 -174 58v-480z" />
    <glyph glyph-name="E" unicode="E" horiz-adv-x="555" 
d="M497 690l19 -204h-78l-41 99h-162v-178h152v-105h-152v-197h169l37 99h79l-21 -204h-446l-14 88l65 13v493l-63 7v89h456z" />
    <glyph glyph-name="F" unicode="F" horiz-adv-x="528" 
d="M398 0h-345l-14 88l65 13v493l-63 7v89h456l19 -205h-76l-43 100h-162v-178h152v-105h-152v-197l170 -26z" />
    <glyph glyph-name="G" unicode="G" horiz-adv-x="620" 
d="M411 98c13.333 0 23.334 0.666016 30.001 1.99902v129l-103 14l18 81h216v-315c-60.667 -8.66699 -119.5 -13 -176.5 -13s-106.833 6.66699 -149.5 20s-80 34 -112 62c-71.333 61.333 -107 147.666 -107 258.999c0 109.333 33 196.333 99 261
c64 62.667 146.667 94 248 94c54 0 103.333 -6 148 -18c11.333 -3.33301 19.666 -5.66602 24.999 -6.99902l18 -206h-81l-51 123c-18 2 -39.667 3 -65 3s-50.666 -5.83301 -75.999 -17.5s-47.333 -28.5 -66 -50.5c-41.333 -47.333 -62 -108 -62 -182
c0 -71.333 21 -128.666 63 -171.999c43.333 -44.667 104.666 -67 183.999 -67z" />
    <glyph glyph-name="H" unicode="H" horiz-adv-x="702" 
d="M665 68l-1 -53v-15h-246l-15 89l58 13v200h-225v-203l63 -12v-19l1 -53v-15h-245l-15 89l65 13v490l-63 7v91h244l15 -93l-65 -12v-178h225v185l-56 7v91h247l15 -93l-75 -12v-486l73 -12v-19z" />
    <glyph glyph-name="I" unicode="I" horiz-adv-x="348" 
d="M312 68l-1 -53v-15h-260l-14 89l70 13v490l-68 7v91h260l15 -93l-76 -12v-486l74 -12v-19z" />
    <glyph glyph-name="J" unicode="J" horiz-adv-x="397" 
d="M304 175c0 -69.333 -16.666 -118.332 -49.999 -146.999c-24.667 -21.333 -56.334 -32 -95.001 -32c-43.333 0 -86 13.667 -128 41c-11.333 7.33301 -21 14.666 -29 21.999l70 101c19.333 -15.333 35.833 -27.5 49.5 -36.5s25.167 -13.5 34.5 -13.5
c11.333 0 17 8.66699 17 26v449l-80 12l15 93h264v-91l-68 -7v-417z" />
    <glyph glyph-name="K" unicode="K" horiz-adv-x="635" 
d="M304 68l1 -52.999v-15h-254l-14 89l70 13v490l-68 5v93h253l15 -90l-69 -15v-240l201 240l-77 16v89h252v-89l-39 -8c-20.667 -26.667 -41.667 -52.334 -63 -77.001l-110 -125l162 -294l54 -10v-87h-158l-146 291l-76 -89v-103l66 -12v-19z" />
    <glyph glyph-name="L" unicode="L" horiz-adv-x="524" 
d="M295 690l15 -91l-75 -14v-480h169l37 99h79l-21 -204h-446l-14 88l65 13v493l-63 7v89h254z" />
    <glyph glyph-name="M" unicode="M" horiz-adv-x="895" 
d="M250 87l1 -47v-40h-200l-6 87l59 8v495l-55 6v94h257l144 -512l145 512h239l15 -93l-55 -12v-491l51 -7v-87h-212l-9 90l44 13v493l-167 -583h-134l-163 576v-491z" />
    <glyph glyph-name="N" unicode="N" horiz-adv-x="727" 
d="M262 65l-1 -52v-13h-208l-16 87l69 13v490l-64 7v93h256l227 -594v496l-58 7v91h215l15 -93l-67 -12v-585h-202l-217 562v-458l51 -16v-23z" />
    <glyph glyph-name="O" unicode="O" horiz-adv-x="655" 
d="M328 -4c-92 0 -164.333 32.6689 -217 98.002c-50 62 -75 145.667 -75 251s25 189 75 251c52 64.667 124.333 97 217 97c93.333 0 165.333 -32.333 216 -97c50 -62.667 75 -146.334 75 -251.001s-25 -188.334 -75 -251.001c-51.333 -65.333 -123.333 -98 -216 -98z
M173 343.002c0 -68.667 14.001 -126 42.001 -172c28 -46.667 65.667 -70 113 -70c46.667 0 84 23.333 112 70c28 46 42 103.333 42 172c0 70 -14 128 -42 174c-28.667 47.333 -66 71 -112 71c-46.667 0 -84.334 -23.667 -113.001 -71c-28 -46 -42 -104 -42 -174z" />
    <glyph glyph-name="P" unicode="P" horiz-adv-x="585" 
d="M238 327c110 0 172.668 26.333 188.001 79c5.33301 16.667 8 35.667 8 57c0 37.333 -11.333 67 -34 89s-58.334 33 -107.001 33h-55v-258zM37.001 86l70.001 13.999v492l-68 7v91h250c139.333 0 227.666 -44.667 264.999 -134c11.333 -28.667 17 -60.667 17 -96
c0 -73.333 -23.667 -130.666 -71 -171.999c-50 -44 -121.667 -66 -215 -66h-47v-108c0 -5.33301 1.5 -8.5 4.5 -9.5s7.83301 -2 14.5 -3s16.167 -2.16699 28.5 -3.5s24.833 -3 37.5 -5s25 -3.83301 37 -5.5s22 -3.16699 30 -4.5l-6 -83h-333z" />
    <glyph glyph-name="Q" unicode="Q" horiz-adv-x="655" 
d="M314 -15l208 -76l7 -38l-94 -98l-176 155zM328 -4c-92 0 -164.333 32.6689 -217 98.002c-50 62 -75 145.667 -75 251s25 189 75 251c52 64.667 124.333 97 217 97c93.333 0 165.333 -32.333 216 -97c50 -62.667 75 -146.334 75 -251.001s-25 -188.334 -75 -251.001
c-51.333 -65.333 -123.333 -98 -216 -98zM173 343.002c0 -68.667 14.001 -126 42.001 -172c28 -46.667 65.667 -70 113 -70c46.667 0 84 23.333 112 70c28 46 42 103.333 42 172c0 70 -14 128 -42 174c-28.667 47.333 -66 71 -112 71
c-46.667 0 -84.334 -23.667 -113.001 -71c-28 -46 -42 -104 -42 -174z" />
    <glyph glyph-name="R" unicode="R" horiz-adv-x="612" 
d="M572 465c0 -96 -46.334 -163 -139.001 -201l88 -167l63 -10v-87h-169l-104 234c-23.333 -2 -47.666 -3 -72.999 -3v-136l52 -8v-87h-243l-9 85l69 14v493l-68 7v91h245c95.333 0 168 -21 218 -63c46.667 -40 70 -94 70 -162zM237.999 337
c4 -0.666992 9.00098 -1 15.001 -1h18c55.333 0 97.666 12.333 126.999 37c26 22 39 51.667 39 89c0 42 -13.667 72 -41 90c-31.333 21.333 -84 32 -158 32v-247z" />
    <glyph glyph-name="S" unicode="S" horiz-adv-x="528" 
d="M342.5 145.5c6.33301 10.333 9.5 22.499 9.5 36.499s-2.5 25.833 -7.5 35.5s-12.833 18.5 -23.5 26.5c-12.667 10 -38.167 24 -76.5 42s-68.5 33 -90.5 45s-41.333 25.667 -58 41c-34.667 34 -52 78 -52 132c0 56 22.667 102 68 138c43.333 33.333 98.666 50 165.999 50
c62.667 0 126 -9 190 -27l15 -190h-84l-49 106c-26 4 -52.667 6 -80 6s-49.166 -7.33301 -65.499 -22s-24.5 -30.667 -24.5 -48s4.33301 -31.166 13 -41.499s19.667 -19.5 33 -27.5c16 -10 42.167 -23.5 78.5 -40.5s65.5 -32.333 87.5 -46s40 -28.5 54 -44.5
c28.667 -31.333 43 -67.833 43 -109.5s-7.33301 -75.5 -22 -101.5s-33.667 -47.333 -57 -64c-44 -30.667 -100.667 -46 -170 -46c-61.333 0 -129.333 15 -204 45l20 193l84 -7l8 -111c8.66699 -2 20.5 -5 35.5 -9s31.167 -6 48.5 -6s33 1.5 47 4.5s26.5 7.83301 37.5 14.5
s19.667 15.167 26 25.5z" />
    <glyph glyph-name="T" unicode="T" horiz-adv-x="615" 
d="M128 80l115 22v483h-113l-43 -100h-77l19 205h555l22 -204h-76l-44 99h-114v-483l116 -22l-10 -80h-340z" />
    <glyph glyph-name="U" unicode="U" horiz-adv-x="670" 
d="M353 101c84 0 125.999 50 125.999 150v342l-64 9v88h228v-91l-59 -13v-338c0 -78 -19.667 -139.5 -59 -184.5s-96.666 -67.5 -171.999 -67.5c-96.667 0 -165.667 22 -207 66c-38.667 41.333 -58 103.333 -58 186v344l-67 9v89h269v-88l-71 -11v-341
c0 -50 9.83301 -87.333 29.5 -112s54.5 -37 104.5 -37z" />
    <glyph glyph-name="V" unicode="V" horiz-adv-x="639" 
d="M244 690l14.001 -79l-77 -17l157 -464c2 7.33301 6.66699 21.333 14 42l56 167l33 98l30 89.5c9.33301 27.667 16.666 50.167 21.999 67.5l-91 18v78h233v-89l-37 -7l-207 -594h-141l-210 594l-36 7v89h240z" />
    <glyph glyph-name="W" unicode="W" horiz-adv-x="985" 
d="M988 690v-88l-78 -20l-110 -582h-168l-141 506l-136 -506h-174l-110 587l-55 13v90h244l17 -79l-70 -10l82 -458l154 534h142l149 -548l78 472l-84 13l11 76h249z" />
    <glyph glyph-name="X" unicode="X" horiz-adv-x="594" 
d="M577 690v-90l-41 -8l-166 -258l143 -241l64 -22v-71h-271v71l57 6l-90 155l-90 -156l55 -6v-70h-225v71l46 8l157 252l-150 260l-42 12v87h253l14 -78l-70 -15l38 -67l53 -94l100 159l-58 18v77h223z" />
    <glyph glyph-name="Y" unicode="Y" horiz-adv-x="583" 
d="M242 690l15 -79l-71 -14l124 -216l112 219l-61 11v79h221v-88l-44 -11l-178 -340v-155l115 -23l-9 -73h-341l-10 73l114 23v156l-191 339l-40 10v89h244z" />
    <glyph glyph-name="Z" unicode="Z" horiz-adv-x="562" 
d="M28 79l337 506h-221l-19 -110h-78v215h460l20 -93c-32.667 -56 -80.5 -130.833 -143.5 -224.5l-124 -185.5l-54.5 -82h215l18 110h80v-215h-471z" />
    <glyph glyph-name="bracketleft" unicode="[" horiz-adv-x="336" 
d="M194 640v-742h152v-79c0 -5.33301 -2.33301 -8 -7 -8h-258l-7 12v891l7 12h258c4.66699 0 7 -2.33301 7 -7v-79h-152z" />
    <glyph glyph-name="backslash" unicode="\" horiz-adv-x="486" 
d="M21 676l-1 14h128l318 -677l-3 -13h-125z" />
    <glyph glyph-name="bracketright" unicode="]" horiz-adv-x="336" 
d="M-10 640v79c0 4.66699 2 7 6 7h258l8 -12v-881l-8 -12h-258c-4 0 -6 2.66699 -6 8v79h151v732h-151z" />
    <glyph glyph-name="asciicircum" unicode="^" horiz-adv-x="514" 
d="M82 561l171 165h37l172 -166l-7 -12h-86l-98 68l-98 -68h-85z" />
    <glyph glyph-name="underscore" unicode="_" horiz-adv-x="553" 
d="M0 -86v73l11 13h536c4 0 6 -2.33301 6 -7v-79h-553z" />
    <glyph glyph-name="grave" unicode="`" horiz-adv-x="338" 
d="M240 447l-183 144l77 91l35 -17l112 -177z" />
    <glyph glyph-name="a" unicode="a" horiz-adv-x="463" 
d="M286 44c-32 -32 -69.332 -47.999 -111.999 -47.999c-45.333 0 -81.333 12.667 -108 38c-24.667 24 -37 53.167 -37 87.5s7.66699 61.5 23 81.5s34.666 36.333 57.999 49c44 22.667 98.667 34.667 164 36v79c0 7.33301 -5.16699 14.166 -15.5 20.499s-22.5 9.5 -36.5 9.5
c-22.667 0 -36.667 -1 -42 -3l-26 -74l-124 54c13.333 32.667 37.333 60 72 82c36.667 23.333 77 35 121 35c76.667 0 129 -28.333 157 -85c10 -20 15 -45.333 15 -76v-225c0 -14.667 6 -22 18 -22l15 2l18 -56c-25.333 -22 -52 -33 -80 -33c-37.333 0 -64 16 -80 48z
M274.001 204.001c-80.667 -4 -120.999 -26 -120.999 -66c0 -11.333 3.66699 -21.833 11 -31.5s19.5 -14.5 36.5 -14.5s32.167 5 45.5 15s22.666 20.667 27.999 32v65z" />
    <glyph glyph-name="b" unicode="b" 
d="M184 472c25.333 12.667 53.667 19.001 85 19.001s59 -5.5 83 -16.5s44.667 -26.833 62 -47.5c36 -42.667 54 -101.334 54 -176.001c0 -90.667 -23.333 -157.667 -70 -201c-39.333 -36 -90.333 -54 -153 -54c-38 0 -70 7 -96 21l-53 -21l-32 27v628l-52 -3l-11 68l149 20
l34 -35v-229zM184.001 103.001c13.333 -8.66699 33.6689 -13 61.002 -13s50.666 12.5 69.999 37.5s29 64 29 117s-9.16699 91.667 -27.5 116s-40.833 36.5 -67.5 36.5s-48.334 -6 -65.001 -18v-276z" />
    <glyph glyph-name="c" unicode="c" horiz-adv-x="431" 
d="M408 52c-36 -37.333 -89.001 -55.999 -159.001 -55.999c-58 0 -107 18.667 -147 56c-48 44 -72 104.333 -72 181c0 90.667 24 158.667 72 204c37.333 36 86 54 146 54c50 0 91.333 -13 124 -39c16.667 -13.333 31 -30 43 -50l-121 -65l-43 60
c-30.667 0 -54.5 -14.333 -71.5 -43s-25.5 -67.334 -25.5 -116.001c0 -67.333 21 -112.333 63 -135c14.667 -8 30.667 -12 48 -12s32 1.83301 44 5.5s22.833 8 32.5 13s17.834 10.333 24.501 16l16 13.5c1.33301 -4.66699 3.33301 -11 6 -19l8 -25
c2.66699 -8.66699 5 -17 7 -25s3.66699 -14 5 -18z" />
    <glyph glyph-name="d" unicode="d" horiz-adv-x="514" 
d="M246 491c24 0 46.667 -4.33203 68 -12.999v170h-51l-11 68l148 21l35 -37v-595c0 -14.667 6.33301 -22 19 -22c6.66699 0 14 2 22 6l19 -52c-11.333 -15.333 -30 -27.333 -56 -36c-10 -3.33301 -21 -5 -33 -5c-37.333 0 -63.666 14 -78.999 42
c-24 -28 -59.333 -42 -106 -42c-56.667 0 -102.334 21 -137.001 63c-35.333 43.333 -53 101.666 -53 174.999c0 90.667 24.333 158.667 73 204c38 35.333 85.333 53 142 53zM314 378.001c-14.667 13.333 -34.334 19.999 -59.001 19.999
c-45.333 0 -75.666 -27.667 -90.999 -83c-6 -21.333 -9 -52.166 -9 -92.499s7.83301 -72.333 23.5 -96s37.5 -35.5 65.5 -35.5c14 0 28.333 4.66699 43 14s23.667 21 27 35v238z" />
    <glyph glyph-name="e" unicode="e" horiz-adv-x="454" 
d="M156 198c9.33301 -71.333 49.667 -107 121 -107c30.667 0 55.334 5.83301 74.001 17.5s34 23.167 46 34.5l23 -87c-18.667 -24.667 -54 -42.667 -106 -54c-17.333 -4 -38.333 -6 -63 -6s-50.5 5 -77.5 15s-51.167 25 -72.5 45c-47.333 44.667 -71 105.667 -71 183
c0 81.333 24 145.333 72 192c40 40 90.333 60 151 60c46 0 85 -11 117 -33c36 -25.333 54 -60 54 -104c0 -52.667 -21.667 -92.667 -65 -120c-38.667 -24.667 -89.334 -37 -152.001 -37h-27c-8.66699 0 -16.667 0.333008 -24 1zM157.001 282
c3.33301 -0.666992 8.33301 -1 15 -1h18c48.667 0 82.334 12 101.001 36c6.66699 8.66699 10 20.167 10 34.5s-4.33301 25.333 -13 33s-19.334 11.5 -32.001 11.5s-24.667 -3 -36 -9s-21.333 -14.333 -30 -25c-19.333 -21.333 -30.333 -48 -33 -80z" />
    <glyph glyph-name="f" unicode="f" horiz-adv-x="359" 
d="M316 63l-1 -62.999h-256l-14 63l54 13v324h-72l-15 81l7 10h81v50c0 66 16.667 116 50 150c28 28.667 65 43 111 43c40.667 0 79 -13.333 115 -40c13.333 -10.667 26 -24.334 38 -41.001l-114 -69l-40 55c-15.333 0 -25.833 -4.16699 -31.5 -12.5
s-8.5 -19.833 -8.5 -34.5v-101h114c3.33301 0 5 -2 5 -6v-85h-119v-326z" />
    <glyph glyph-name="g" unicode="g" horiz-adv-x="503" 
d="M112 155c-52.667 33.333 -78.998 82.335 -78.998 147.002c0 57.333 21 104 63 140c38 32.667 82.5 49 133.5 49s94.833 -14.333 131.5 -43l109 55l23 -3l11 -99l-93 -11c14 -26.667 21 -55.5 21 -86.5s-5.83301 -57.833 -17.5 -80.5s-26.834 -41.667 -45.501 -57
c-36.667 -29.333 -82.334 -44 -137.001 -44h-14c-4 0 -8 0.333008 -12 1l-18 -27l2 -14l102 -21c104.667 -22 157 -69.333 157 -142c0 -58 -23 -105 -69 -141c-42.667 -33.333 -97.667 -50 -165 -50c-58 0 -105 14.333 -141 43c-34.667 28 -52 63.333 -52 106
c0 55.333 25.667 98.333 77 129c-16 17.333 -24 40.666 -24 69.999s12.333 55.666 37 78.999zM232.002 397.002c-36.667 0 -60.001 -18.668 -70.001 -56.001c-3.33301 -10.667 -5 -25 -5 -43s6 -36.167 18 -54.5s31.167 -27.5 57.5 -27.5s45.5 9.16699 57.5 27.5
s18 36.5 18 54.5s-1.5 32.333 -4.5 43s-7.5 20.334 -13.5 29.001c-13.333 18 -32.666 27 -57.999 27zM170.001 -33.999c-26 -16.667 -38.999 -36.335 -38.999 -59.002c0 -26 19 -43.667 57 -53c14.667 -4 30.834 -6 48.501 -6s33 1.33301 46 4s24.833 6.33398 35.5 11.001
c23.333 10 35 23 35 39c0 10 -5.83301 17.667 -17.5 23s-26.334 10 -44.001 14s-37.334 7.83301 -59.001 11.5s-42.5 8.83398 -62.5 15.501z" />
    <glyph glyph-name="h" unicode="h" horiz-adv-x="547" 
d="M526 64l-1 -64h-225v64l50 11v256c0 41.333 -20.667 62 -62 62c-27.333 0 -52.666 -9 -75.999 -27c-5.33301 -4 -9 -7.33301 -11 -10v-281l57 -11l-1 -64h-222l-12 64l57 13v571h-52l-10 68l148 21l35 -37v-245c12.667 9.33301 29.667 17.666 51 24.999
s42.666 11 63.999 11s41.333 -2.66699 60 -8s35 -13.333 49 -24c30.667 -23.333 46 -56.666 46 -99.999v-283z" />
    <glyph glyph-name="i" unicode="i" horiz-adv-x="288" 
d="M89.5 611.5c-14.333 14.333 -21.5 31.333 -21.5 51s7.16699 36.667 21.5 51s31.5 21.5 51.5 21.5s37 -7.16699 51 -21.5s21 -31.333 21 -51s-7 -36.667 -21 -51s-31 -21.5 -51 -21.5s-37.167 7.16699 -51.5 21.5zM26 466l149 26l34 -36v-381l55 -11v-64h-221l-11 64
l56 13v321h-51z" />
    <glyph glyph-name="j" unicode="j" horiz-adv-x="264" 
d="M27 -148c8.66699 -8.66699 18.332 -13 28.999 -13s17.167 5.33301 19.5 16s3.5 24 3.5 40v503h-51l-11 68l148 26l35 -36v-559c0 -67.333 -17.333 -114.333 -52 -141c-20.667 -16 -47.667 -24 -81 -24c-35.333 0 -66.666 11.667 -93.999 35zM73.498 611.5
c-14.333 14.333 -21.5 31.333 -21.5 51s7.16699 36.667 21.5 51s31.333 21.5 51 21.5s36.667 -7.16699 51 -21.5s21.5 -31.333 21.5 -51s-7.16699 -36.667 -21.5 -51s-31.333 -21.5 -51 -21.5s-36.667 7.16699 -51 21.5z" />
    <glyph glyph-name="k" unicode="k" horiz-adv-x="509" 
d="M248 64l-1 -64h-212l-12 64l57 13v571h-52l-10 68l148 21l35 -37v-428l128 141h-53l-10 78h177l35 -65l-139 -139l107 -214l47 -11l1 -62h-151l-93 198l-49 -49v-74z" />
    <glyph glyph-name="l" unicode="l" horiz-adv-x="284" 
d="M200 700v-621l65 -16v-63h-231l-11 63l56 14v571h-52l-11 68l149 21z" />
    <glyph glyph-name="m" unicode="m" horiz-adv-x="821" 
d="M531 64l-1 -63.998h-220v64l48 11v256c0 41.333 -20.667 62 -62 62c-27.333 0 -52.666 -9 -75.999 -27c-5.33301 -4 -9 -7.33301 -11 -10v-281l57 -12l-1 -63h-222l-13 63l58 14v321h-51l-11 68l148 26l35 -37c12.667 9.33301 29.667 17.666 51 24.999s43 11 65 11
c54.667 0 95.667 -15.667 123 -47c43.333 31.333 93 47 149 47c69.333 0 115.666 -24.333 138.999 -73c8 -16.667 12 -36.334 12 -59.001v-283l51 -12l-1 -64h-227v63l56 12v256c0 41.333 -20.667 62 -62 62c-27.333 0 -52.333 -9 -75 -27c-6 -4 -10 -7.33301 -12 -10v-282z
" />
    <glyph glyph-name="n" unicode="n" horiz-adv-x="555" 
d="M26 466l148 26l35 -37c12.667 9.33301 29.667 17.666 51 24.999s42.666 11 63.999 11s41.333 -2.66699 60 -8s35 -13.333 49 -24c30.667 -23.333 46 -56.666 46 -99.999v-286l55 -9l-1 -64h-225v64l50 11v256c0 41.333 -20.667 62 -62 62
c-27.333 0 -52.666 -9 -75.999 -27c-5.33301 -4 -9 -7.33301 -11 -10v-281l57 -12l-1 -63h-222l-11 64l56 13v321h-51z" />
    <glyph glyph-name="o" unicode="o" 
d="M29 246c0 76 23 137 69 183c41.333 41.333 91.666 62 150.999 62c60 0 110.667 -20.667 152 -62c46 -46 69 -107 69 -183c0 -77.333 -23 -139.333 -69 -186c-41.333 -42.667 -92 -64 -152 -64c-59.333 0 -109.666 21.333 -150.999 64c-46 46.667 -69 108.667 -69 186z
M153 240c0 -77.333 19.668 -124.667 59.001 -142c11.333 -5.33301 23.666 -8 36.999 -8c46 0 75.667 26.667 89 80c5.33301 18.667 8 42 8 70c0 80 -20 129.333 -60 148c-11.333 6 -23.666 9 -36.999 9c-44.667 0 -74.334 -28.333 -89.001 -85c-4.66699 -20 -7 -44 -7 -72z
" />
    <glyph glyph-name="p" unicode="p" horiz-adv-x="515" 
d="M319 -208l-1 -64.999h-273l-16 63l51 15v597l-51 -7l-13 72l150 24l23 -23c28.667 15.333 59.667 23 93 23s62 -5.5 86 -16.5s44.667 -26.833 62 -47.5c36 -42.667 54 -101.334 54 -176.001c0 -90.667 -23.333 -157.667 -70 -201c-39.333 -36 -90.333 -54 -153 -54
c-20 0 -40 2.66699 -60 8v-186zM201 103.001c12.667 -8.66699 32.6689 -13 60.002 -13s50.666 12.5 69.999 37.5s29 64 29 117s-9 91.667 -27 116s-40.333 36.5 -67 36.5s-48.334 -6 -65.001 -18v-276z" />
    <glyph glyph-name="q" unicode="q" 
d="M237 491c40 0 75.334 -7.00098 106.001 -21.001l58 23l34 -24v-650l55 -19v-73h-288l-11 63l123 24v210c-22.667 -18.667 -50.834 -28 -84.501 -28s-62.5 5.83301 -86.5 17.5s-44.333 27.834 -61 48.501c-34 43.333 -51 100.333 -51 171c0 94 26.333 163.667 79 209
c21.333 19.333 43.833 32.333 67.5 39s43.5 10 59.5 10zM314.001 376.999c-14 14 -34.666 21 -61.999 21c-44 0 -73.333 -25.333 -88 -76c-6 -20 -9 -45.667 -9 -77c0 -56.667 10 -98 30 -124c15.333 -20 36 -30 62 -30c14.667 0 28.667 5.33301 42 16
s21.666 24.667 24.999 42v228z" />
    <glyph glyph-name="r" unicode="r" horiz-adv-x="428" 
d="M331 64l1.00098 -63.999h-288l-15 64l60 16v321l-51 -4l-11 68c8.66699 1.33301 19.834 3.33301 33.501 6l41.5 8c37.333 7.33301 58.666 11.333 63.999 12l34 -52c13.333 16.667 29.333 29.5 48 38.5s39.667 13.5 63 13.5s46.833 -6.83301 70.5 -20.5
s40.167 -35.834 49.5 -66.501l-121 -63l-30 50c-16.667 0 -31.334 -7.66699 -44.001 -23c-17.333 -20.667 -26 -48 -26 -82v-187c0 -0.666992 5.16699 -2.5 15.5 -5.5l36.5 -10.5c33.333 -10 56.333 -16.333 69 -19z" />
    <glyph glyph-name="s" unicode="s" horiz-adv-x="412" 
d="M145 159l26.002 -64.999c6 -2 15 -3 27 -3s21 0.833008 27 2.5s11.667 4.5 17 8.5c11.333 8 17 18.333 17 31s-3.5 22.5 -10.5 29.5s-15.5 12.833 -25.5 17.5s-20.333 8.66699 -31 12s-19.334 6.66602 -26.001 9.99902c-46.667 18.667 -79.334 40.167 -98.001 64.5
s-28 48.666 -28 72.999s4.33301 45.333 13 63s21 32.834 37 45.501c34 28.667 75 43 123 43c64 0 113.333 -21.667 148 -65c9.33301 -12 16.666 -23.333 21.999 -34l-127 -51l-24 51c-6.66699 3.33301 -14.667 5 -24 5c-29.333 0 -44 -12.667 -44 -38
c0 -10 5.33301 -18.667 16 -26s24 -14.666 40 -21.999l52.5 -24c19 -8.66699 36.5 -19 52.5 -31c37.333 -28 56 -63.333 56 -106c0 -47.333 -18 -85.333 -54 -114c-34 -26 -75.333 -39 -124 -39c-45.333 0 -85.666 12.333 -120.999 37c-31.333 21.333 -53 46.666 -65 75.999
z" />
    <glyph glyph-name="t" unicode="t" horiz-adv-x="345" 
d="M91 164l1.99902 235.999h-76l-15 81l7 10h85c0.666992 40.667 1 76.334 1 107.001s0.333008 51 1 61l107 23l9 -16v-175h101c3.33301 0 5 -2 5 -6v-85h-106v-261c0 -20.667 2.66699 -33.5 8 -38.5s13 -7.5 23 -7.5c20 0 42 9.66699 66 29
c0.666992 -2.66699 2.33398 -7.66699 5.00098 -15l8 -23c6.66699 -22 10.667 -36.333 12 -43c-9.33301 -10 -24.833 -20 -46.5 -30s-43 -15 -64 -15s-39 2.16699 -54 6.5s-28.167 11.833 -39.5 22.5c-26 23.333 -39 61 -39 113v26z" />
    <glyph glyph-name="u" unicode="u" horiz-adv-x="539" 
d="M437 -4c-39.333 0 -66.3301 16.0029 -80.9971 48.0029c-15.333 -16.667 -34.666 -28.834 -57.999 -36.501s-46 -11.5 -68 -11.5c-47.333 0 -85 12.167 -113 36.5s-42 62.166 -42 113.499v252h-51l-11 67l148 27l35 -38v-285c0 -26 6.16699 -45.333 18.5 -58
s28.166 -19 47.499 -19s36.666 5.33301 51.999 16s25.666 22.667 30.999 36v257l-45 -3l-12 67l143 27l35 -38v-349c0 -14.667 5.33301 -22 16 -22l14 2l19 -56c-4 -4.66699 -12.833 -11.334 -26.5 -20.001s-30.834 -13 -51.501 -13z" />
    <glyph glyph-name="v" unicode="v" horiz-adv-x="497" 
d="M189 0l-132 407h-50l-8 72l168 12l108 -364l104 280h-42l-9 72l148 12l19 -36l-167 -455h-139z" />
    <glyph glyph-name="w" unicode="w" horiz-adv-x="741" 
d="M132 0l-84 407h-36l-7 72l152 12l69 -360l88 343h143l85 -347l70 280h-35l-8 72l130 12l22 -36l-115 -455h-157l-79 322l-80 -322h-158z" />
    <glyph glyph-name="x" unicode="x" horiz-adv-x="471" 
d="M26 0v73h42l97 170l-96 175h-42v73h142l87 -156l79 156h110v-73h-42l-98 -171l97 -174h42v-73h-146l-80 145l-80 -145h-112z" />
    <glyph glyph-name="y" unicode="y" horiz-adv-x="498" 
d="M496 455l-70.002 -198.001l-72 -205.5l-33.5 -95.5l-27.5 -76.5l-22 -59c-6.66699 -17.667 -15.834 -33.667 -27.501 -48s-23.5 -25.166 -35.5 -32.499c-16 -9.33301 -35.333 -14 -58 -14c-29.333 0 -58.666 7.66699 -87.999 23c-12 6 -23 13.667 -33 23l54 84
c28.667 -24 48.334 -36 59.001 -36s19.834 4.33301 27.501 13s15.5 24 23.5 46l22 60l-169 468h-38l-8 72l150 12l130 -372l37.5 103.5l35 95.5l31.5 89h-46l-8 73l146 11z" />
    <glyph glyph-name="z" unicode="z" horiz-adv-x="421" 
d="M38 96l208 301h-128l-12 -68h-68v162h344v-96l-202 -298h121l12 66h69v-163h-343z" />
    <glyph glyph-name="braceleft" unicode="{" horiz-adv-x="367" 
d="M109 49l4 90.999c0 29.333 -11.667 52.666 -35 69.999c-21.333 16 -46.666 24 -75.999 24v82c29.333 0 54.666 8 75.999 24c23.333 17.333 35 40 35 68l-4 95c0 64.667 11 113.667 33 147c27.333 42 75 63 143 63c36.667 0 67 -5 91 -15l-36 -116l-78 33
c-13.333 -5.33301 -21.666 -18.166 -24.999 -38.499s-5 -43.5 -5 -69.5l1 -81c0 -73.333 -17.667 -118.666 -53 -135.999c-12 -6.66699 -26.333 -11 -43 -13l-8 -3c39.333 -4.66699 66.5 -18 81.5 -40s22.5 -58.667 22.5 -110l-1 -80c0 -64 10 -100 30 -108l78 34l36 -117
c-24 -10 -54.5 -15 -91.5 -15s-66.833 5.83301 -89.5 17.5s-40.334 27.167 -53.001 46.5c-22 32 -33 81 -33 147z" />
    <glyph glyph-name="bar" unicode="|" horiz-adv-x="270" 
d="M195 689v-890h-120v890h120z" />
    <glyph glyph-name="braceright" unicode="}" horiz-adv-x="368" 
d="M259 503l-4.00098 -95c0 -28 11.667 -50.667 35 -68c21.333 -16 46.666 -24 75.999 -24v-82c-29.333 0 -54.666 -8 -75.999 -24c-23.333 -17.333 -35 -40.666 -35 -69.999l4 -91c0 -66 -11 -115 -33 -147c-28.667 -42.667 -76.334 -64 -143.001 -64
c-35.333 0 -66 5 -92 15l37 117l78 -34c12.667 5.33301 20.834 18.333 24.501 39s5.5 43.667 5.5 69l-1 80c0 51.333 7.5 88 22.5 110s39.5 35 73.5 39l8 3c-23.333 2.66699 -40.833 7.16699 -52.5 13.5s-21.167 15.166 -28.5 26.499c-15.333 23.333 -23 60 -23 110l1 81
c0 26 -1.66699 49.167 -5 69.5s-11.666 33.166 -24.999 38.499l-78 -33l-37 116c26 10 57 15 93 15s65.5 -5.66699 88.5 -17s40.833 -26.666 53.5 -45.999c22 -33.333 33 -82.333 33 -147z" />
    <glyph glyph-name="asciitilde" unicode="~" horiz-adv-x="436" 
d="M343 697l80.999 -75.001c-38.667 -52.667 -79 -79 -121 -79c-22 0 -46.333 7.66699 -73 23c-10 5.33301 -20.167 10.333 -30.5 15s-23.833 7 -40.5 7s-30.667 -5.66699 -42 -17s-19 -23.666 -23 -36.999l-74 45v18c6.66699 20.667 18 38 34 52
c30.667 26.667 63.334 40 98.001 40s74 -14 118 -42c8 -5.33301 14.333 -8 19 -8z" />
    <glyph glyph-name="exclamdown" unicode="&#xa1;" horiz-adv-x="264" 
d="M168 241l48 -404l-21 -38l-144 14l39 428h78zM63 425c0 18.667 6.66699 34.5 20 47.5s29.166 19.5 47.499 19.5s34 -6.5 47 -19.5s19.5 -28.833 19.5 -47.5s-6.5 -34.334 -19.5 -47.001s-28.667 -19 -47 -19s-34.166 6.33301 -47.499 19s-20 28.334 -20 47.001z" />
    <glyph glyph-name="cent" unicode="&#xa2;" horiz-adv-x="438" 
d="M405 52c-24 -25.333 -58.002 -42.3301 -102.002 -50.9971v-201h-121v205c-71.333 20.667 -118.666 67 -141.999 139c-8.66699 26 -13 57.167 -13 93.5s4.33301 69 13 98s20 53.5 34 73.5c27.333 37.333 63.333 62 108 74v206h121v-205
c44 -10.667 77.333 -33.334 100 -68.001c4.66699 -6.66699 7.66699 -11.334 9 -14.001l-121 -65l-43 60c-30.667 0 -54.5 -14.333 -71.5 -43s-25.5 -67.334 -25.5 -116.001c0 -67.333 21 -112.333 63 -135c14.667 -8 30.667 -12 48 -12s32 1.83301 44 5.5s22.833 8 32.5 13
s17.834 10.333 24.501 16l16 13.5c1.33301 -4.66699 3.33301 -11 6 -19l8 -25c2.66699 -8.66699 5 -17 7 -25s3.66699 -14 5 -18z" />
    <glyph glyph-name="sterling" unicode="&#xa3;" horiz-adv-x="528" 
d="M163 451l-1.00098 57.001c0 64 18 112 54 144c31.333 26.667 70.333 40 117 40s93.667 -17.667 141 -53l-91 -101l-42 48c-22.667 0 -37 -8 -43 -24c-4 -12.667 -6 -38.334 -6 -77.001v-37c0 -11.333 -0.333008 -23 -1 -35h125c4.66699 0 7 -2.66699 7 -8v-87h-140
c-7.33301 -68 -20.333 -126.333 -39 -175c23.333 -4.66699 47.333 -11.334 72 -20.001c42.667 -14 68.334 -21 77.001 -21l36 42l69 -110c-23.333 -25.333 -61 -38 -113 -38c-32.667 0 -64.834 5.16699 -96.501 15.5l-70.5 22.5c-15.333 4.66699 -32 7 -50 7
s-32.5 -4.66699 -43.5 -14s-18.167 -19.666 -21.5 -30.999l-75 7l-3 45c8 18.667 23.667 40.334 47 65.001c42.667 45.333 70.334 113.666 83.001 204.999h-65v86l8 9h64c0.666992 6 1 12 1 18v20z" />
    <glyph glyph-name="currency" unicode="&#xa4;" horiz-adv-x="585" 
d="M462 445c18 -30.667 27 -63.5 27 -98.5s-8.33301 -67.167 -25 -96.5l78 -78l-75 -74l-77 77c-30 -16.667 -62.5 -25 -97.5 -25s-67.167 8.33301 -96.5 25l-77 -77l-75 74l78 78c-16.667 29.333 -25 62 -25 98s8.66699 68.667 26 98l-79 79l75 75l80 -81
c30.667 16 62 24 94 24s63.333 -8 94 -24l80 81l75 -75zM201 346c0 -27.333 8.33301 -49.5 25 -66.5s38.834 -25.5 66.501 -25.5s49.834 8.5 66.501 25.5s25 39.167 25 66.5s-8.33301 49.5 -25 66.5s-38.834 25.5 -66.501 25.5s-49.834 -8.5 -66.501 -25.5
s-25 -39.167 -25 -66.5z" />
    <glyph glyph-name="yen" unicode="&#xa5;" horiz-adv-x="634" 
d="M269 691l15 -79l-71 -14l125 -180l111 183l-61 11v79h221v-88l-44 -11l-170 -277h99v-89h-107v-14h107v-89h-107v-27l115 -23l-9 -73h-341l-10 73l114 23v27h-117v89h117v14h-117v89h109l-183 277l-40 10v89h244z" />
    <glyph glyph-name="brokenbar" unicode="&#xa6;" horiz-adv-x="275" 
d="M77 286v404h121v-404h-121zM77 -247v399h121v-399h-121z" />
    <glyph glyph-name="section" unicode="&#xa7;" horiz-adv-x="512" 
d="M108 387c-37.333 34.667 -55.9971 76.332 -55.9971 124.999c0 52 20 94.667 60 128c40.667 34.667 92.667 52 156 52c62 0 125 -9 189 -27l15 -191h-84l-45 115c-23.333 5.33301 -47.833 8 -73.5 8s-45.5 -6.5 -59.5 -19.5s-21 -28 -21 -45s3.83301 -30.833 11.5 -41.5
s18.167 -20.334 31.5 -29.001c12.667 -8 40 -21.667 82 -41s71.833 -35.5 89.5 -48.5s31.167 -26.167 40.5 -39.5c17.333 -23.333 26 -53.166 26 -89.499s-17.333 -71.166 -52 -104.499c30 -28.667 45 -62.834 45 -102.501s-6.83301 -71.5 -20.5 -95.5
s-31.834 -43.667 -54.501 -59c-41.333 -28.667 -96.333 -43 -165 -43c-38.667 0 -73.334 4.33301 -104.001 13s-59.667 18.334 -87 29.001l20 194l84 -8l9 -121c32 -8 61.167 -12 87.5 -12s48.666 5.66699 66.999 17s27.5 27.5 27.5 48.5s-6.83301 37.667 -20.5 50
s-30.667 23.5 -51 33.5s-42.5 20 -66.5 30s-46.333 22.333 -67 37c-47.333 33.333 -71 75.333 -71 126c0 42 19 79 57 111zM317.003 202.998c11.333 11.333 16.9971 23.5 16.9971 36.5s-5.5 24 -16.5 33s-24.5 17.333 -40.5 25s-29.5 13.834 -40.5 18.501l-34.5 15
c-10 -11.333 -15 -23.333 -15 -36s4 -23 12 -31s18.333 -15.333 31 -22s26.334 -12.834 41.001 -18.501s25.834 -10.5 33.501 -14.5s11.834 -6 12.501 -6z" />
    <glyph glyph-name="dieresis" unicode="&#xa8;" horiz-adv-x="417" 
d="M52 531c0 19.333 6.66699 35.666 20 48.999s29.5 20 48.5 20s35.167 -6.66699 48.5 -20s20 -29.666 20 -48.999s-6.66699 -35.5 -20 -48.5s-29.5 -19.5 -48.5 -19.5s-35.167 6.5 -48.5 19.5s-20 29.167 -20 48.5zM230 531c0 19.333 6.5 35.666 19.5 48.999
s29.167 20 48.5 20s35.333 -6.66699 48 -20s19 -29.666 19 -48.999s-6.33301 -35.5 -19 -48.5s-28.667 -19.5 -48 -19.5s-35.5 6.5 -48.5 19.5s-19.5 29.167 -19.5 48.5z" />
    <glyph glyph-name="copyright" unicode="&#xa9;" horiz-adv-x="752" 
d="M30 373c0 47.333 9 92 27 134s42.667 78.667 74 110s68 56.166 110 74.499s86.667 27.5 134 27.5s92 -9.16699 134 -27.5s78.833 -43.166 110.5 -74.499s56.667 -68 75 -110s27.5 -86.667 27.5 -134s-9.16699 -92 -27.5 -134s-43.333 -78.667 -75 -110
s-68.5 -56.166 -110.5 -74.499s-86.667 -27.5 -134 -27.5s-92 9.16699 -134 27.5s-78.667 43.166 -110 74.499s-56 68 -74 110s-27 86.667 -27 134zM160 374c0 -30 5.66602 -58.166 16.999 -84.499s27 -49.5 47 -69.5c42 -42 92.667 -63 152 -63c60 0 110.667 21 152 63
c42 43.333 63 94.666 63 153.999c0 58 -21 108.667 -63 152c-41.333 42 -92 63 -152 63c-59.333 0 -110.166 -21.167 -152.499 -63.5s-63.5 -92.833 -63.5 -151.5zM323.499 312.501c17.667 -15.667 37 -23.499 58 -23.499s42.833 5.66699 65.5 17l35 -86
c-30 -19.333 -59.5 -29 -88.5 -29s-54.667 4.33301 -77 13s-41.833 20.667 -58.5 36c-36.667 34 -55 77.667 -55 131c0 57.333 18.333 103.666 55 138.999c33.333 32 76.333 48 129 48c22.667 0 45 -2 67 -6l9 -139h-55l-15 46c-3.33301 0.666992 -6.33301 1 -9 1h-7
c-26.667 0 -46.667 -8.16699 -60 -24.5s-20 -37 -20 -62s8.83301 -45.333 26.5 -61z" />
    <glyph glyph-name="ordfeminine" unicode="&#xaa;" horiz-adv-x="385" 
d="M33 643c20 54 67.668 81 143.001 81c76 0 121.667 -27.333 137 -82c4.66699 -16 6.83398 -28.667 6.50098 -38s-0.5 -15.666 -0.5 -18.999v-86c0 -5.33301 0.666992 -8 2 -8h7l14 2l18 -60c-22.667 -19.333 -46.334 -29 -71.001 -29s-45 10.333 -61 31
c-21.333 -22.667 -51.333 -34 -90 -34c-26 0 -49.333 7.66699 -70 23c-24 18 -36 40 -36 66s5.66699 45.667 17 59s25.666 23.666 42.999 30.999c28.667 12 67.667 18 117 18v12c0 6.66699 -2.16699 14.167 -6.5 22.5s-12.833 12.5 -25.5 12.5
c-8.66699 0 -16 -1.66699 -22 -5l-9 -23zM209.001 545c-48.667 0 -73 -11.667 -73 -35c0 -5.33301 2 -11.333 6 -18s13.833 -10 29.5 -10s28.167 6.33301 37.5 19v44z" />
    <glyph glyph-name="guillemotleft" unicode="&#xab;" horiz-adv-x="469" 
d="M281 486l-148 -149l147 -147l-66 -67l-213 216l213 214zM436 465l-127 -128l126 -126l-66 -67l-193 195l193 193z" />
    <glyph glyph-name="logicalnot" unicode="&#xac;" horiz-adv-x="572" 
d="M411 375h-370v93l10 12h452l13 -13v-200c0 -4.66699 -2.66699 -7 -8 -7h-97v115z" />
    <glyph glyph-name="uni00AD" unicode="&#xad;" horiz-adv-x="429" 
d="M459 314h-489v105h489v-105z" />
    <glyph glyph-name="registered" unicode="&#xae;" horiz-adv-x="752" 
d="M30 373c0 47.333 9 92 27 134s42.667 78.667 74 110s68 56.166 110 74.499s86.667 27.5 134 27.5s92 -9.16699 134 -27.5s78.833 -43.166 110.5 -74.499s56.667 -68 75 -110s27.5 -86.667 27.5 -134s-9.16699 -92 -27.5 -134s-43.333 -78.667 -75 -110
s-68.5 -56.166 -110.5 -74.499s-86.667 -27.5 -134 -27.5s-92 9.16699 -134 27.5s-78.667 43.166 -110 74.499s-56 68 -74 110s-27 86.667 -27 134zM160 374c0 -30 5.66602 -58.166 16.999 -84.499s27 -49.5 47 -69.5c42 -42 92.667 -63 152 -63c60 0 110.667 21 152 63
c42 43.333 63 94.666 63 153.999c0 58 -21 108.667 -63 152c-41.333 42 -92 63 -152 63c-59.333 0 -110.166 -21.167 -152.499 -63.5s-63.5 -92.833 -63.5 -151.5zM266.999 469.001c-10 0.666992 -17 1.66699 -21 3v68h107c55.333 0 96.333 -12 123 -36
c22.667 -20 34 -48.833 34 -86.5s-16 -66.5 -48 -86.5l23 -62l27 -4v-57h-99l-30 99c-6 -0.666992 -12 -1 -18 -1h-19v-38l41 -11v-49h-138l-2 51l20 8v202zM345.999 379.001c46 0 72 9.00098 78 27.001c1.33301 5.33301 2 12.666 2 21.999s-5.33301 18 -16 26
s-32 12 -64 12v-87z" />
    <glyph glyph-name="macron" unicode="&#xaf;" horiz-adv-x="443" 
d="M57 726h329v-97h-329v97z" />
    <glyph glyph-name="degree" unicode="&#xb0;" horiz-adv-x="346" 
d="M172 724c42.667 0 77.999 -15.332 105.999 -45.999c26.667 -29.333 40 -67.333 40 -114c0 -48.667 -13.333 -88 -40 -118c-28 -30 -63.5 -45 -106.5 -45s-77.667 15 -104 45s-39.5 68.667 -39.5 116s13.333 86.166 40 116.499s61.334 45.5 104.001 45.5zM171.999 633.001
c-26 0 -39 -23.001 -39 -69.001c0 -48.667 13 -73 39 -73c15.333 0 26.666 9.66699 33.999 29c4.66699 10.667 7 25.334 7 44.001c0 28 -6.33301 48.333 -19 61c-5.33301 5.33301 -12.666 8 -21.999 8z" />
    <glyph glyph-name="plusminus" unicode="&#xb1;" horiz-adv-x="453" 
d="M271 517v-116h133v-97h-133v-117h-94v117h-131v74l16 23h115v116h94zM404 51h-358v74l16 23h342v-97z" />
    <glyph glyph-name="twosuperior" unicode="&#xb2;" horiz-adv-x="336" 
d="M58 402l-17 59c6 6.66699 17 16.334 33 29.001s32 26.334 48 41.001c42 37.333 63 66.666 63 87.999c0 13.333 -3.5 22 -10.5 26s-13.167 6 -18.5 6s-12 -1 -20 -3l-20 -41l-89 28c17.333 44.667 50.666 73.667 99.999 87c14.667 4 28.834 6 42.501 6s27.5 -2 41.5 -6
s27 -10 39 -18c26.667 -18.667 40 -44.334 40 -77.001c0 -50 -30 -93 -90 -129l-32 -21h57l18 36h53l-11 -111h-227z" />
    <glyph glyph-name="threesuperior" unicode="&#xb3;" horiz-adv-x="323" 
d="M62 511c23.333 -23.333 51.002 -35.001 83.002 -35.001c12 0 21.667 3 29 9s11 14.167 11 24.5s-4.5 18 -13.5 23s-28.833 7.5 -59.5 7.5v52c38 0 59.333 8.33301 64 25c1.33301 4.66699 2 9.5 2 14.5s-2.5 9.66699 -7.5 14s-11 6.5 -18 6.5s-12 -0.5 -15 -1.5
s-5.83301 -1.83301 -8.5 -2.5l-15 -27l-83 29c11.333 27.333 29.5 47.166 54.5 59.499s48.667 18.5 71 18.5s40.5 -2.16699 54.5 -6.5s26.333 -10.5 37 -18.5c23.333 -17.333 35 -37.833 35 -61.5s-5.83301 -40.667 -17.5 -51s-23.834 -17.166 -36.501 -20.499
c17.333 -4.66699 29.666 -10.334 36.999 -17.001c16 -14.667 24 -32.167 24 -52.5s-4 -36.666 -12 -48.999s-18.667 -22.166 -32 -29.499c-24 -13.333 -53.167 -20 -87.5 -20s-62.5 4.83301 -84.5 14.5s-37.333 18.5 -46 26.5z" />
    <glyph glyph-name="acute" unicode="&#xb4;" horiz-adv-x="348" 
d="M52 513l129 164l37 15l78 -109l-197 -124z" />
    <glyph glyph-name="mu" unicode="&#xb5;" horiz-adv-x="562" 
d="M205 3c2.66699 -16 4.00293 -30.666 4.00293 -43.999v-233h-121v672h-53l-10 67l150 27l34 -34v-307c5.33301 -39.333 27.666 -59 66.999 -59c18 0 34.667 5.33301 50 16s25.666 22.667 30.999 36v257l-45 -3l-11 67l142 27l35 -38v-349c0 -14.667 5.33301 -22 16 -22
l14 2l19 -56c-4 -4.66699 -12.667 -11.334 -26 -20.001s-30.333 -13 -51 -13c-39.333 0 -66.333 15.667 -81 47c-28.667 -31.333 -64.334 -47 -107.001 -47c-16 0 -35 2.33301 -57 7z" />
    <glyph glyph-name="mu" unicode="&#x3bc;" horiz-adv-x="562" 
d="M205 3c2.66699 -16 4.00293 -30.666 4.00293 -43.999v-233h-121v672h-53l-10 67l150 27l34 -34v-307c5.33301 -39.333 27.666 -59 66.999 -59c18 0 34.667 5.33301 50 16s25.666 22.667 30.999 36v257l-45 -3l-11 67l142 27l35 -38v-349c0 -14.667 5.33301 -22 16 -22
l14 2l19 -56c-4 -4.66699 -12.667 -11.334 -26 -20.001s-30.333 -13 -51 -13c-39.333 0 -66.333 15.667 -81 47c-28.667 -31.333 -64.334 -47 -107.001 -47c-16 0 -35 2.33301 -57 7z" />
    <glyph glyph-name="paragraph" unicode="&#xb6;" horiz-adv-x="656" 
d="M430 0l0.000976562 590.999h-53v-487c0 -18 -10.333 -39 -31 -63c-16.667 -20 -39.667 -39.333 -69 -58l-80 105l62 42v169c-70.667 1.33301 -127.334 21 -170.001 59c-41.333 36 -62 83.333 -62 142c0 50.667 16.333 93.334 49 128.001c40 42 96.667 63 170 63h349v-100
h-34v-591h-131z" />
    <glyph glyph-name="periodcentered" unicode="&#xb7;" horiz-adv-x="243" 
d="M54 399h118l18 -20v-155h-136v175z" />
    <glyph glyph-name="cedilla" unicode="&#xb8;" horiz-adv-x="415" 
d="M134 -82l34 97.002h103l-18 -56c47.333 -9.33301 79 -32 95 -68c6 -13.333 9 -28.833 9 -46.5s-3.66699 -34.334 -11 -50.001s-18 -29.5 -32 -41.5c-31.333 -26 -72 -39 -122 -39c-28 0 -52.167 3 -72.5 9s-38.833 12 -55.5 18l50 97l72 -48c24.667 0 43.334 9 56.001 27
c4.66699 6.66699 7 16.167 7 28.5s-5.83301 24.166 -17.5 35.499s-31.834 17 -60.501 17l-13 1z" />
    <glyph glyph-name="onesuperior" unicode="&#xb9;" horiz-adv-x="260" 
d="M46 447l38 8v197l-49 -8l-9 45l149 38l17 -12l-3 -48v-209l37 -9v-47h-177z" />
    <glyph glyph-name="ordmasculine" unicode="&#xba;" horiz-adv-x="354" 
d="M69.5 440c-26.333 27.333 -39.5 68.666 -39.5 123.999s13.167 96.166 39.5 122.499s61.833 39.5 106.5 39.5s80.5 -13.167 107.5 -39.5s40.5 -67.166 40.5 -122.499s-13.5 -96.666 -40.5 -123.999s-62.833 -41 -107.5 -41s-80.167 13.667 -106.5 41zM141.5 612
c-4.33301 -13.333 -6.5 -30.5 -6.5 -51.5s2.16699 -37.667 6.5 -50s15.833 -18.5 34.5 -18.5s30.5 6.16699 35.5 18.5s7.5 29 7.5 50s-2.5 38.167 -7.5 51.5s-16.833 20 -35.5 20s-30.167 -6.66699 -34.5 -20z" />
    <glyph glyph-name="guillemotright" unicode="&#xbb;" horiz-adv-x="469" 
d="M256 553l213 -216l-213 -214l-66 67l147 147l-148 149zM100 532l193 -195l-193 -193l-66 67l126 126l-127 128z" />
    <glyph glyph-name="onequarter" unicode="&#xbc;" horiz-adv-x="757" 
d="M254 0h-125l-3 13l318 678h128l-1 -14zM725 101h-45v-35l46 -8v-58h-240l-6 49l84 14v38h-170v80l170 219h116v-215h45v-84zM45 371l46 7v230l-54 -8l-8 66l164 48l13 -12v-321l42 -8v-58h-203v56zM564 185v84l-74 -84h74z" />
    <glyph glyph-name="onehalf" unicode="&#xbd;" horiz-adv-x="784" 
d="M472 -1l-19 69.002c4.66699 6 12.167 14.333 22.5 25l34.5 36l39 41.5c13.333 14.333 25.333 28.5 36 42.5c24.667 32.667 37 55 37 67c0 7.33301 -2.16699 13.166 -6.5 17.499s-10.5 6.5 -18.5 6.5s-13.667 -0.666992 -17 -2l-18 -53l-117 45
c17.333 37.333 40 64.166 68 80.499s53.667 24.5 77 24.5s43.666 -1.83301 60.999 -5.5s32.333 -9.83398 45 -18.501c29.333 -19.333 44 -49.666 44 -90.999c0 -32.667 -17.333 -72 -52 -118c-25.333 -33.333 -50.666 -59.333 -75.999 -78h67l24 61h52l-16 -150h-267z
M263 0.00195312h-125l-3 13l318 678h128l-1 -14zM45 371.002l46 7v230l-54 -8l-8 66l164 48l13 -12v-321l38 -8v-58h-199v56z" />
    <glyph glyph-name="threequarters" unicode="&#xbe;" horiz-adv-x="805" 
d="M317 0h-125l-3 13l318 678h128l-1 -14zM771 101h-45v-35l46 -8v-58h-240l-6 49l84 14v38h-170v80l177 219h109v-215h45v-84zM143 554l14.999 -0.999023c38 0 57 12 57 36c0 8 -3.16699 15.333 -9.5 22s-14.5 10 -24.5 10c-11.333 0 -21 -2 -29 -6l-18 -50l-108 40
c11.333 34.667 33.333 62.334 66 83.001c30 18 63 27 99 27c65.333 0 108.333 -19 129 -57c8 -14 12 -30.667 12 -50s-4.33301 -36.833 -13 -52.5s-20.667 -26.5 -36 -32.5c18 -11.333 29.667 -20 35 -26c14 -15.333 21 -34 21 -56s-4.33301 -41 -13 -57
s-20.667 -29.333 -36 -40c-28.667 -20.667 -64 -31 -106 -31c-62.667 0 -111.667 16.667 -147 50l57 81c13.333 -12.667 27.333 -22 42 -28s26.834 -9 36.501 -9s19.5 2.66699 29.5 8s15 14.666 15 27.999s-4.16699 23.166 -12.5 29.499s-22.5 9.5 -42.5 9.5l-19 -1v73z
M609.999 185.001v84l-74 -84h74z" />
    <glyph glyph-name="questiondown" unicode="&#xbf;" horiz-adv-x="407" 
d="M295 253c6 -15.333 9 -35.5 9 -60.5s-3.5 -44.833 -10.5 -59.5s-16 -27.5 -27 -38.5s-22.667 -21.167 -35 -30.5l-35.5 -28c-24.667 -21.333 -37 -43.666 -37 -66.999s6 -40.5 18 -51.5s25.667 -16.5 41 -16.5c29.333 0 48.666 3 57.999 9l26 95h71l-16 -175
c-21.333 -7.33301 -44.166 -14.5 -68.499 -21.5s-52.333 -10.5 -84 -10.5s-58.667 4.16699 -81 12.5s-40.833 19.5 -55.5 33.5c-30.667 28 -46 63.333 -46 106c0 67.333 28.667 124.666 86 171.999c36 29.333 59.5 52.333 70.5 69s16.5 34 16.5 52v9zM312 425
c0 -18.667 -6.5 -34.334 -19.5 -47.001s-28.833 -19 -47.5 -19s-34.334 6.33301 -47.001 19s-19 28.334 -19 47.001s6.33301 34.5 19 47.5s28.334 19.5 47.001 19.5s34.5 -6.5 47.5 -19.5s19.5 -28.833 19.5 -47.5z" />
    <glyph glyph-name="Agrave" unicode="&#xc0;" horiz-adv-x="621" 
d="M349 0v75l80 21l-36 122h-196l-38 -126l88 -16v-76h-239l-13 78l55 18l198 595h124l201 -595l46 -18l-10 -78h-260zM228 323h121l-53 226zM377 724l-183 144l77 91l35 -17l112 -177z" />
    <glyph glyph-name="Aacute" unicode="&#xc1;" horiz-adv-x="621" 
d="M349 0v75l80 21l-36 122h-196l-38 -126l88 -16v-76h-239l-13 78l55 18l198 595h124l201 -595l46 -18l-10 -78h-260zM228 323h121l-53 226zM187 795l129 164l37 15l78 -109l-197 -124z" />
    <glyph glyph-name="Acircumflex" unicode="&#xc2;" horiz-adv-x="621" 
d="M115 737l171 166h37l172 -167l-8 -12h-86l-97 58l-98 -58h-85zM349 0v75l80 21l-36 122h-196l-38 -126l88 -16v-76h-239l-13 78l55 18l198 595h124l201 -595l46 -18l-10 -78h-260zM228 323h121l-53 226z" />
    <glyph glyph-name="Atilde" unicode="&#xc3;" horiz-adv-x="621" 
d="M433 881l80.999 -76.001c-14.667 -20 -33 -38 -55 -54s-42.667 -24 -62 -24s-34.5 2.33301 -45.5 7s-21.5 9.83398 -31.5 15.501s-20.167 10.834 -30.5 15.501s-23.833 7 -40.5 7s-30.667 -5.83301 -42 -17.5s-19 -23.834 -23 -36.501l-74 44v19
c6.66699 20.667 18 38 34 52c30.667 26.667 63.334 40 98.001 40s74 -14 118 -42c8 -5.33301 14.333 -8 19 -8zM348.999 -0.000976562v75l80 21l-36 122h-196l-38 -126l88 -16v-76h-239l-13 78l55 18l198 595h124l201 -595l46 -18l-10 -78h-260zM227.999 322.999h121
l-53 226z" />
    <glyph glyph-name="Adieresis" unicode="&#xc4;" horiz-adv-x="621" 
d="M349 0v75l80 21l-36 122h-196l-38 -126l88 -16v-76h-239l-13 78l55 18l198 594h124l201 -594l46 -18l-10 -78h-260zM228 323h121l-53 225zM155 804c0 19.333 6.66699 35.666 20 48.999s29.5 20 48.5 20s35.167 -6.66699 48.5 -20s20 -29.666 20 -48.999
s-6.66699 -35.5 -20 -48.5s-29.5 -19.5 -48.5 -19.5s-35.167 6.5 -48.5 19.5s-20 29.167 -20 48.5zM333 804c0 19.333 6.5 35.666 19.5 48.999s29.167 20 48.5 20s35.333 -6.66699 48 -20s19 -29.666 19 -48.999s-6.33301 -35.5 -19 -48.5s-28.667 -19.5 -48 -19.5
s-35.5 6.5 -48.5 19.5s-19.5 29.167 -19.5 48.5z" />
    <glyph glyph-name="Aring" unicode="&#xc5;" horiz-adv-x="617" 
d="M407 740c0 -30 -9.66699 -54.667 -29 -74l193 -570l46 -18l-10 -78h-260v75l80 21l-36 122h-196l-38 -126l88 -16v-76h-239l-13 78l55 18l186 560c-26 20 -39 48 -39 84c0 30 10.167 55.167 30.5 75.5s45.5 30.5 75.5 30.5c30.667 0 55.667 -10 75 -30
c20.667 -22 31 -47.333 31 -76zM226 323h121l-53 226zM262 740c0 -12 3.33301 -21.5 10 -28.5s16.167 -10.5 28.5 -10.5s21.833 3.5 28.5 10.5s10 16.5 10 28.5s-3.33301 21.5 -10 28.5s-16.167 10.5 -28.5 10.5s-21.833 -3.5 -28.5 -10.5s-10 -16.5 -10 -28.5z" />
    <glyph glyph-name="AE" unicode="&#xc6;" horiz-adv-x="803" 
d="M1 0l-13 78l53 18l225 595h479l20 -204h-79l-40 99h-162v-178h152v-105h-152v-198h169l37 99h78l-21 -204h-434l-15 88l55 13v159h-138l-63 -168l88 -16v-76h-239zM342 596l-87 -231h98v230z" />
    <glyph glyph-name="Ccedilla" unicode="&#xc7;" horiz-adv-x="589" 
d="M419.5 568c-3.66699 8 -6.49609 13 -8.49609 15s-16.333 3 -43 3s-52.334 -5.5 -77.001 -16.5s-46.334 -26.833 -65.001 -47.5c-40 -45.333 -60 -103.333 -60 -174c0 -73.333 18.667 -132.666 56 -177.999c38.667 -46 88.667 -69 150 -69c27.333 0 54.666 5 81.999 15
s50.666 24.667 69.999 44l42 -89c-15.333 -18.667 -37.833 -34.5 -67.5 -47.5s-61.5 -21.5 -95.5 -25.5l-12 -39c47.333 -9.33301 79 -32 95 -68c6 -13.333 9 -28.833 9 -46.5s-3.66699 -34.334 -11 -50.001s-18 -29.5 -32 -41.5c-31.333 -26 -72 -39 -122 -39
c-28 0 -52.167 3 -72.5 9s-38.833 12 -55.5 18l50 97l72 -48c24.667 0 43.334 9 56.001 27c4.66699 6.66699 7 16.167 7 28.5s-5.83301 24.166 -17.5 35.499s-31.834 17 -60.501 17l-13 1l-24 19l29 83c-79.333 12.667 -143.333 46.667 -192 102c-52.667 60 -79 137 -79 231
c0 110.667 34.667 199.334 104 266.001c62.667 60.667 138 91 226 91c58 0 114.333 -8 169 -24l20 -207h-81l-32 71z" />
    <glyph glyph-name="Egrave" unicode="&#xc8;" horiz-adv-x="555" 
d="M497 691l19 -204h-78l-41 99h-162v-178h152v-105h-152v-198h169l37 99h79l-21 -204h-446l-14 88l65 13v494l-63 7v89h456zM353 724l-183 144l77 91l35 -17l112 -177z" />
    <glyph glyph-name="Eacute" unicode="&#xc9;" horiz-adv-x="555" 
d="M497 690l19 -204h-78l-41 99h-162v-178h152v-105h-152v-197h169l37 99h79l-21 -204h-446l-14 88l65 13v493l-63 7v89h456zM205 795l129 164l37 15l78 -109l-197 -124z" />
    <glyph glyph-name="Ecircumflex" unicode="&#xca;" horiz-adv-x="555" 
d="M92 737l171 166h37l172 -167l-7 -12h-86l-98 58l-97 -58h-85zM497 691l19 -204h-78l-41 99h-162v-178h152v-105h-152v-198h169l37 99h79l-21 -204h-446l-14 88l65 13v494l-63 7v89h456z" />
    <glyph glyph-name="Edieresis" unicode="&#xcb;" horiz-adv-x="555" 
d="M497 691l19 -204h-78l-41 99h-162v-178h152v-105h-152v-198h169l37 99h79l-21 -204h-446l-14 88l65 13v494l-63 7v89h456zM131 804c0 19.333 6.66699 35.666 20 48.999s29.5 20 48.5 20s35.167 -6.66699 48.5 -20s20 -29.666 20 -48.999s-6.66699 -35.5 -20 -48.5
s-29.5 -19.5 -48.5 -19.5s-35.167 6.5 -48.5 19.5s-20 29.167 -20 48.5zM309 804c0 19.333 6.5 35.666 19.5 48.999s29.167 20 48.5 20s35.333 -6.66699 48 -20s19 -29.666 19 -48.999s-6.33301 -35.5 -19 -48.5s-28.667 -19.5 -48 -19.5s-35.5 6.5 -48.5 19.5
s-19.5 29.167 -19.5 48.5z" />
    <glyph glyph-name="Igrave" unicode="&#xcc;" horiz-adv-x="348" 
d="M312 68l-1 -53v-15h-260l-14 89l70 13v491l-68 7v91h260l15 -93l-76 -12v-487l74 -12v-19zM241 724l-183 144l77 91l35 -17l112 -177z" />
    <glyph glyph-name="Iacute" unicode="&#xcd;" horiz-adv-x="348" 
d="M312 68l-1 -53v-15h-260l-14 89l70 13v491l-68 7v91h260l15 -93l-76 -12v-487l74 -12v-19zM71 795l129 164l37 15l78 -109l-197 -124z" />
    <glyph glyph-name="Icircumflex" unicode="&#xce;" horiz-adv-x="348" 
d="M312 68l-1 -53v-15h-260l-14 89l70 13v491l-68 7v91h260l15 -93l-76 -12v-487l74 -12v-19zM-14 737l171 166h37l172 -167l-7 -12h-86l-98 58l-98 -58h-85z" />
    <glyph glyph-name="Idieresis" unicode="&#xcf;" horiz-adv-x="348" 
d="M312 68l-1 -53v-15h-260l-14 89l70 13v491l-68 7v91h260l15 -93l-76 -12v-487l74 -12v-19zM23 804c0 19.333 6.66699 35.666 20 48.999s29.5 20 48.5 20s35.167 -6.66699 48.5 -20s20 -29.666 20 -48.999s-6.66699 -35.5 -20 -48.5s-29.5 -19.5 -48.5 -19.5
s-35.167 6.5 -48.5 19.5s-20 29.167 -20 48.5zM201 804c0 19.333 6.5 35.666 19.5 48.999s29.167 20 48.5 20s35.333 -6.66699 48 -20s19 -29.666 19 -48.999s-6.33301 -35.5 -19 -48.5s-28.667 -19.5 -48 -19.5s-35.5 6.5 -48.5 19.5s-19.5 29.167 -19.5 48.5z" />
    <glyph glyph-name="Eth" unicode="&#xd0;" horiz-adv-x="639" 
d="M41 88l65 13.001v208h-92v82l14 12h78v192l-63 8v88h179c186.667 0 306.667 -63 360 -189c17.333 -42.667 26 -92 26 -148c0 -112.667 -29 -199.834 -87 -261.501s-143.333 -92.5 -256 -92.5h-217zM237 105.001l18.999 -1c70.667 0 124.334 21 161.001 63s55 103 55 183
c0 157.333 -78.333 236 -235 236v-183h125c4.66699 0 7 -2.33301 7 -7v-87h-132v-204z" />
    <glyph glyph-name="Ntilde" unicode="&#xd1;" horiz-adv-x="727" 
d="M262 65l-1 -52v-13h-208l-16 87l69 13v490l-64 7v93h256l227 -594v496l-58 7v91h215l15 -93l-67 -12v-585h-202l-217 562v-458l51 -16v-23zM486 881l80.998 -76.001c-14.667 -20 -33 -38 -55 -54s-42.667 -24 -62 -24s-34.5 2.33301 -45.5 7s-21.5 9.83398 -31.5 15.501
s-20.167 10.834 -30.5 15.501s-23.833 7 -40.5 7s-30.667 -5.83301 -42 -17.5s-19 -23.834 -23 -36.501l-74 44v19c6.66699 20.667 18 38 34 52c30.667 26.667 63.334 40 98.001 40s73.667 -14 117 -42c8.66699 -5.33301 15.334 -8 20.001 -8z" />
    <glyph glyph-name="Ograve" unicode="&#xd2;" horiz-adv-x="655" 
d="M328 -4c-92 0 -164.333 32.6689 -217 98.002c-50 62 -75 145.667 -75 251s25 189 75 251c52 64.667 124.333 97 217 97c93.333 0 165.333 -32.333 216 -97c50 -62.667 75 -146.334 75 -251.001s-25 -188.334 -75 -251.001c-51.333 -65.333 -123.333 -98 -216 -98z
M173 343.002c0 -68.667 14.001 -126 42.001 -172c28 -46.667 65.667 -70 113 -70c46.667 0 84 23.333 112 70c28 46 42 103.333 42 172c0 70 -14 128 -42 174c-28.667 47.333 -66 71 -112 71c-46.667 0 -84.334 -23.667 -113.001 -71c-28 -46 -42 -104 -42 -174z
M388.001 724.002l-183 144l77 91l35 -17l112 -177z" />
    <glyph glyph-name="Oacute" unicode="&#xd3;" horiz-adv-x="655" 
d="M328 -4c-92 0 -164.333 32.6689 -217 98.002c-50 62 -75 145.667 -75 251s25 189 75 251c52 64.667 124.333 97 217 97c93.333 0 165.333 -32.333 216 -97c50 -62.667 75 -146.334 75 -251.001s-25 -188.334 -75 -251.001c-51.333 -65.333 -123.333 -98 -216 -98z
M173 343.002c0 -68.667 14.001 -126 42.001 -172c28 -46.667 65.667 -70 113 -70c46.667 0 84 23.333 112 70c28 46 42 103.333 42 172c0 70 -14 128 -42 174c-28.667 47.333 -66 71 -112 71c-46.667 0 -84.334 -23.667 -113.001 -71c-28 -46 -42 -104 -42 -174z
M229.001 795.002l129 164l37 15l78 -109l-197 -124z" />
    <glyph glyph-name="Ocircumflex" unicode="&#xd4;" horiz-adv-x="655" 
d="M147 737l171 166h37l172 -167l-7 -12h-86l-98 58l-98 -58h-85zM328 -4c-92 0 -164.333 32.6689 -217 98.002c-50 62 -75 145.667 -75 251s25 189 75 251c52 64.667 124.333 97 217 97c93.333 0 165.333 -32.333 216 -97c50 -62.667 75 -146.334 75 -251.001
s-25 -188.334 -75 -251.001c-51.333 -65.333 -123.333 -98 -216 -98zM173 343.002c0 -68.667 14.001 -126 42.001 -172c28 -46.667 65.667 -70 113 -70c46.667 0 84 23.333 112 70c28 46 42 103.333 42 172c0 70 -14 128 -42 174c-28.667 47.333 -66 71 -112 71
c-46.667 0 -84.334 -23.667 -113.001 -71c-28 -46 -42 -104 -42 -174z" />
    <glyph glyph-name="Otilde" unicode="&#xd5;" horiz-adv-x="655" 
d="M443 881l80.999 -76c-14 -20 -32 -38 -54 -54s-42.833 -24 -62.5 -24s-35 2.33301 -46 7s-21.5 9.83398 -31.5 15.501s-20.167 10.834 -30.5 15.501s-23.833 7 -40.5 7s-30.5 -5.83301 -41.5 -17.5s-18.833 -23.834 -23.5 -36.501l-73 44v19
c7.33301 21.333 18.333 38.666 33 51.999c30.667 26.667 63.334 40 98.001 40c35.333 0 74.666 -14 117.999 -42c8.66699 -5.33301 15.334 -8 20.001 -8zM327.999 -4c-92 0 -164.333 32.6689 -217 98.002c-50 62 -75 145.667 -75 251s25 189 75 251
c52 64.667 124.333 97 217 97c93.333 0 165.333 -32.333 216 -97c50 -62.667 75 -146.334 75 -251.001s-25 -188.334 -75 -251.001c-51.333 -65.333 -123.333 -98 -216 -98zM172.999 343.002c0 -68.667 14.001 -126 42.001 -172c28 -46.667 65.667 -70 113 -70
c46.667 0 84 23.333 112 70c28 46 42 103.333 42 172c0 70 -14 128 -42 174c-28.667 47.333 -66 71 -112 71c-46.667 0 -84.334 -23.667 -113.001 -71c-28 -46 -42 -104 -42 -174z" />
    <glyph glyph-name="Odieresis" unicode="&#xd6;" horiz-adv-x="655" 
d="M328 -4c-92 0 -164.333 32.6689 -217 98.002c-50 62 -75 145.667 -75 251s25 189 75 251c52 64.667 124.333 97 217 97c93.333 0 165.333 -32.333 216 -97c50 -62.667 75 -146.334 75 -251.001s-25 -188.334 -75 -251.001c-51.333 -65.333 -123.333 -98 -216 -98z
M173 343.002c0 -68.667 14.001 -126 42.001 -172c28 -46.667 65.667 -70 113 -70c46.667 0 84 23.333 112 70c28 46 42 103.333 42 172c0 70 -14 128 -42 174c-28.667 47.333 -66 71 -112 71c-46.667 0 -84.334 -23.667 -113.001 -71c-28 -46 -42 -104 -42 -174z
M174.001 804.002c0 19.333 6.66699 35.666 20 48.999s29.5 20 48.5 20s35.167 -6.66699 48.5 -20s20 -29.666 20 -48.999s-6.66699 -35.5 -20 -48.5s-29.5 -19.5 -48.5 -19.5s-35.167 6.5 -48.5 19.5s-20 29.167 -20 48.5zM352.001 804.002c0 19.333 6.5 35.666 19.5 48.999
s29.167 20 48.5 20s35.333 -6.66699 48 -20s19 -29.666 19 -48.999s-6.33301 -35.5 -19 -48.5s-28.667 -19.5 -48 -19.5s-35.5 6.5 -48.5 19.5s-19.5 29.167 -19.5 48.5z" />
    <glyph glyph-name="multiply" unicode="&#xd7;" horiz-adv-x="465" 
d="M35 201l127 127l-127 127l70 70l127 -127l127 128l71 -70l-127 -128l127 -126l-71 -71l-127 126l-127 -127z" />
    <glyph glyph-name="Oslash" unicode="&#xd8;" horiz-adv-x="655" 
d="M515 627c69.333 -62.667 103.999 -156.666 103.999 -281.999c0 -104.667 -25 -188.334 -75 -251.001c-51.333 -65.333 -123.333 -98 -216 -98c-33.333 0 -64.666 4.66699 -93.999 14l-33 -73h-125l-4 23l53 117c-59.333 62 -89 151.333 -89 268c0 105.333 25 189 75 251
c52 64.667 124.333 97 217 97c26.667 0 51.667 -3 75 -9l33 73h127v-24zM452.999 492.001l-173 -381c14 -6.66699 31.333 -10 52 -10s40.5 6.16699 59.5 18.5s35.167 29.5 48.5 51.5c28 46 42 100.5 42 163.5s-9.66699 115.5 -29 157.5zM183.999 439.001
c-7.33301 -30 -11.001 -64.833 -11.001 -104.5s6 -77.5 18 -113.5l166 363c-8.66699 2.66699 -21.667 4 -39 4s-35.5 -6.33301 -54.5 -19s-35.167 -30 -48.5 -52s-23.666 -48 -30.999 -78z" />
    <glyph glyph-name="Ugrave" unicode="&#xd9;" horiz-adv-x="670" 
d="M353 101c84 0 125.999 50 125.999 150v343l-64 9v88h228v-91l-59 -13v-339c0 -78 -19.667 -139.5 -59 -184.5s-96.666 -67.5 -171.999 -67.5c-96.667 0 -165.667 22 -207 66c-38.667 41.333 -58 103.333 -58 186v345l-67 9v89h269v-88l-71 -11v-342
c0 -50 9.83301 -87.333 29.5 -112s54.5 -37 104.5 -37zM394.999 724l-183 144l77 91l35 -17l112 -177z" />
    <glyph glyph-name="Uacute" unicode="&#xda;" horiz-adv-x="670" 
d="M353 101c84 0 125.999 50 125.999 150v343l-64 9v88h228v-91l-59 -13v-339c0 -78 -19.667 -139.5 -59 -184.5s-96.666 -67.5 -171.999 -67.5c-96.667 0 -165.667 22 -207 66c-38.667 41.333 -58 103.333 -58 186v345l-67 9v89h269v-88l-71 -11v-342
c0 -50 9.83301 -87.333 29.5 -112s54.5 -37 104.5 -37zM246.999 795l129 164l37 15l78 -109l-197 -124z" />
    <glyph glyph-name="Ucircumflex" unicode="&#xdb;" horiz-adv-x="670" 
d="M151 737l171 166h37l172 -167l-7 -12h-86l-98 58l-98 -58h-85zM353 101c84 0 125.999 50 125.999 150v343l-64 9v88h228v-91l-59 -13v-339c0 -78 -19.667 -139.5 -59 -184.5s-96.666 -67.5 -171.999 -67.5c-96.667 0 -165.667 22 -207 66
c-38.667 41.333 -58 103.333 -58 186v345l-67 9v89h269v-88l-71 -11v-342c0 -50 9.83301 -87.333 29.5 -112s54.5 -37 104.5 -37z" />
    <glyph glyph-name="Udieresis" unicode="&#xdc;" horiz-adv-x="670" 
d="M353 101c84 0 125.999 50 125.999 150v342l-64 9v88h228v-91l-59 -13v-338c0 -78 -19.667 -139.5 -59 -184.5s-96.666 -67.5 -171.999 -67.5c-96.667 0 -165.667 22 -207 66c-38.667 41.333 -58 103.333 -58 186v344l-67 9v89h269v-88l-71 -11v-341
c0 -50 9.83301 -87.333 29.5 -112s54.5 -37 104.5 -37zM192.999 804c0 19.333 6.66699 35.666 20 48.999s29.5 20 48.5 20s35.167 -6.66699 48.5 -20s20 -29.666 20 -48.999s-6.66699 -35.5 -20 -48.5s-29.5 -19.5 -48.5 -19.5s-35.167 6.5 -48.5 19.5s-20 29.167 -20 48.5z
M370.999 804c0 19.333 6.5 35.666 19.5 48.999s29.167 20 48.5 20s35.333 -6.66699 48 -20s19 -29.666 19 -48.999s-6.33301 -35.5 -19 -48.5s-28.667 -19.5 -48 -19.5s-35.5 6.5 -48.5 19.5s-19.5 29.167 -19.5 48.5z" />
    <glyph glyph-name="Yacute" unicode="&#xdd;" horiz-adv-x="583" 
d="M242 691l15 -79l-71 -14l124 -216l112 219l-61 11v79h221v-88l-44 -11l-178 -341v-155l115 -23l-9 -73h-341l-10 73l114 23v156l-191 340l-40 10v89h244zM232 795l129 164l37 15l78 -109l-197 -124z" />
    <glyph glyph-name="Thorn" unicode="&#xde;" horiz-adv-x="556" 
d="M240 558l36.002 1c87.333 0 154.666 -19 201.999 -57c44.667 -36.667 67 -86.667 67 -150s-22 -113 -66 -149c-46.667 -38 -113.334 -57 -200.001 -57h-19c-6 0 -12.667 0.333008 -20 1v-48l114 -12v-87h-314v89l68 13v491l-68 7v91h261l14 -93l-75 -12v-28zM409.002 352
c0 32 -10.666 55.334 -31.999 70.001c-26.667 19.333 -72.334 29.666 -137.001 30.999v-202c94 0 148 20.333 162 61c4.66699 12.667 7 26 7 40z" />
    <glyph glyph-name="germandbls" unicode="&#xdf;" horiz-adv-x="562" 
d="M132.5 680.5c35.667 36.333 84.832 54.5059 147.499 54.5059c94 0 155.333 -31 184 -93c10.667 -22.667 16 -49.5 16 -80.5s-5.16699 -56.167 -15.5 -75.5s-21.5 -35.166 -33.5 -47.499s-23.167 -22.5 -33.5 -30.5s-15.5 -15.333 -15.5 -22s1.33301 -12.167 4 -16.5
s6.66699 -8.83301 12 -13.5s12.333 -9.83398 21 -15.501s20.667 -14.167 36 -25.5s29.333 -23.5 42 -36.5s22.667 -25.833 30 -38.5c13.333 -22 20 -46.833 20 -74.5s-4.66699 -51.667 -14 -72s-22.333 -37.833 -39 -52.5c-33.333 -30 -77.333 -45 -132 -45
c-32.667 0 -58.667 3.16699 -78 9.5l-45 14.5l51 121l56 -51c26 0 47.333 10.667 64 32c7.33301 9.33301 11 22 11 38s-3.83301 30.167 -11.5 42.5s-17.167 23.666 -28.5 33.999s-23.833 20.166 -37.5 29.499s-26.167 19.333 -37.5 30c-26.667 25.333 -40 50.666 -40 75.999
s4.66699 44.833 14 58.5s19.833 26.167 31.5 37.5s22.167 23.666 31.5 36.999s14 31.166 14 53.499s-6.83301 41.5 -20.5 57.5s-30.167 24 -49.5 24s-34.166 -3 -44.499 -9s-18.5 -14 -24.5 -24c-12 -18.667 -18 -43.667 -18 -75v-532h-164l-7 72l50 11v448
c0 63.333 17.833 113.166 53.5 149.499z" />
    <glyph glyph-name="agrave" unicode="&#xe0;" horiz-adv-x="463" 
d="M413 83c-12 0 -17.999 7.33203 -17.999 21.999v225c0 55.333 -18 97.333 -54 126c-29.333 23.333 -68.666 35 -117.999 35c-44 0 -84.333 -11.667 -121 -35c-34.667 -22 -58.667 -49.333 -72 -82l124 -54l26 74c5.33301 2 17.166 3 35.499 3s32.666 -3.16699 42.999 -9.5
s15.5 -13.166 15.5 -20.499v-79c-106.667 -2.66699 -180.667 -31 -222 -85c-15.333 -20 -23 -42 -23 -66s3.16699 -44.167 9.5 -60.5s15.5 -30.5 27.5 -42.5c26.667 -25.333 62.667 -38 108 -38c42.667 0 80 16 112 48c16 -32 42.667 -48 80 -48c28 0 54.667 11 80 33
l-18 56zM246.001 106.999c-13.333 -10 -28.501 -14.999 -45.501 -14.999s-29.167 4.83301 -36.5 14.5s-11 20.5 -11 32.5s4 22.167 12 30.5s18 15.166 30 20.499c18.667 7.33301 45 12 79 14v-65c-5.33301 -11.333 -14.666 -22 -27.999 -32zM282 509l-193 121l77 106l36 -14
l126 -161z" />
    <glyph glyph-name="aacute" unicode="&#xe1;" horiz-adv-x="463" 
d="M286 44c-32 -32 -69.332 -47.999 -111.999 -47.999c-45.333 0 -81.333 12.667 -108 38c-24.667 24 -37 53.167 -37 87.5s7.66699 61.5 23 81.5s34.666 36.333 57.999 49c44 22.667 98.667 34.667 164 36v79c0 7.33301 -5.16699 14.166 -15.5 20.499s-22.5 9.5 -36.5 9.5
c-22.667 0 -36.667 -1 -42 -3l-26 -74l-124 54c13.333 32.667 37.333 60 72 82c36.667 23.333 77 35 121 35c76.667 0 129 -28.333 157 -85c10 -20 15 -45.333 15 -76v-225c0 -14.667 6 -22 18 -22l15 2l18 -56c-25.333 -22 -52 -33 -80 -33c-37.333 0 -64 16 -80 48z
M274.001 204.001c-80.667 -4 -120.999 -26 -120.999 -66c0 -11.333 3.66699 -21.833 11 -31.5s19.5 -14.5 36.5 -14.5s32.167 5 45.5 15s22.666 20.667 27.999 32v65zM112.002 561.001l126 161l36 14l77 -106l-193 -121z" />
    <glyph glyph-name="acircumflex" unicode="&#xe2;" horiz-adv-x="463" 
d="M79 541l134 159h32l134 -160l-6 -11h-78l-67 52l-67 -52h-77zM286 44c-32 -32 -69.332 -47.999 -111.999 -47.999c-45.333 0 -81.333 12.667 -108 38c-24.667 24 -37 53.167 -37 87.5s7.66699 61.5 23 81.5s34.666 36.333 57.999 49c44 22.667 98.667 34.667 164 36v79
c0 7.33301 -5.16699 14.166 -15.5 20.499s-22.5 9.5 -36.5 9.5c-22.667 0 -36.667 -1 -42 -3l-26 -74l-124 54c13.333 32.667 37.333 60 72 82c36.667 23.333 77 35 121 35c76.667 0 129 -28.333 157 -85c10 -20 15 -45.333 15 -76v-225c0 -14.667 6 -22 18 -22l15 2l18 -56
c-25.333 -22 -52 -33 -80 -33c-37.333 0 -64 16 -80 48zM274.001 204.001c-80.667 -4 -120.999 -26 -120.999 -66c0 -11.333 3.66699 -21.833 11 -31.5s19.5 -14.5 36.5 -14.5s32.167 5 45.5 15s22.666 20.667 27.999 32v65z" />
    <glyph glyph-name="atilde" unicode="&#xe3;" horiz-adv-x="463" 
d="M388 627c-34 -48.667 -67.666 -72.999 -100.999 -72.999c-16.667 0 -33.334 4.66699 -50.001 14s-29.5 16.166 -38.5 20.499s-20.5 6.5 -34.5 6.5s-25.833 -5.16699 -35.5 -15.5s-16.167 -21.166 -19.5 -32.499l-64 42l1 19c13.333 33.333 37 57.666 71 72.999
c13.333 6 27.833 9 43.5 9s29.5 -2.16699 41.5 -6.5s23 -9 33 -14s18.667 -10 26 -15s13 -7.83301 17 -8.5l36 51zM286.001 44.001c-32 -32 -69.332 -47.999 -111.999 -47.999c-45.333 0 -81.333 12.667 -108 38c-24.667 24 -37 53.167 -37 87.5s7.66699 61.5 23 81.5
s34.666 36.333 57.999 49c44 22.667 98.667 34.667 164 36v79c0 7.33301 -5.16699 14.166 -15.5 20.499s-22.5 9.5 -36.5 9.5c-22.667 0 -36.667 -1 -42 -3l-26 -74l-124 54c13.333 32.667 37.333 60 72 82c36.667 23.333 77 35 121 35c76.667 0 129 -28.333 157 -85
c10 -20 15 -45.333 15 -76v-225c0 -14.667 6 -22 18 -22l15 2l18 -56c-25.333 -22 -52 -33 -80 -33c-37.333 0 -64 16 -80 48zM274.002 204.002c-80.667 -4 -120.999 -26 -120.999 -66c0 -11.333 3.66699 -21.833 11 -31.5s19.5 -14.5 36.5 -14.5s32.167 5 45.5 15
s22.666 20.667 27.999 32v65z" />
    <glyph glyph-name="adieresis" unicode="&#xe4;" horiz-adv-x="463" 
d="M70 634c0 17.333 6 32 18 44s26.667 18 44 18s32 -6 44 -18s18 -26.667 18 -44s-6 -32 -18 -44s-26.667 -18 -44 -18s-32 6 -44 18s-18 26.667 -18 44zM231 634c0 17.333 6 32 18 44s26.667 18 44 18s32 -6 44 -18s18 -26.667 18 -44s-6 -32 -18 -44s-26.667 -18 -44 -18
s-32 6 -44 18s-18 26.667 -18 44zM286 44c-32 -32 -69.332 -47.999 -111.999 -47.999c-45.333 0 -81.333 12.667 -108 38c-24.667 24 -37 53.167 -37 87.5s7.66699 61.5 23 81.5s34.666 36.333 57.999 49c44 22.667 98.667 34.667 164 36v79
c0 7.33301 -5.16699 14.166 -15.5 20.499s-22.5 9.5 -36.5 9.5c-22.667 0 -36.667 -1 -42 -3l-26 -74l-124 54c13.333 32.667 37.333 60 72 82c36.667 23.333 77 35 121 35c76.667 0 129 -28.333 157 -85c10 -20 15 -45.333 15 -76v-225c0 -14.667 6 -22 18 -22l15 2l18 -56
c-25.333 -22 -52 -33 -80 -33c-37.333 0 -64 16 -80 48zM274.001 204.001c-80.667 -4 -120.999 -26 -120.999 -66c0 -11.333 3.66699 -21.833 11 -31.5s19.5 -14.5 36.5 -14.5s32.167 5 45.5 15s22.666 20.667 27.999 32v65z" />
    <glyph glyph-name="aring" unicode="&#xe5;" horiz-adv-x="463" 
d="M118 630c0 15.333 2.66797 29.501 8.00098 42.501s12.666 24.167 21.999 33.5c20.667 20.667 46 31 76 31s55.167 -10.167 75.5 -30.5s30.5 -45.5 30.5 -75.5s-10.167 -55.167 -30.5 -75.5s-45.5 -30.5 -75.5 -30.5s-55.167 10.167 -75.5 30.5s-30.5 45.166 -30.5 74.499
zM181.001 631.001c0 -13.333 3.83301 -23.833 11.5 -31.5s18.167 -11.5 31.5 -11.5s23.833 3.83301 31.5 11.5s11.5 18.167 11.5 31.5s-3.83301 23.833 -11.5 31.5s-18.167 11.5 -31.5 11.5s-23.833 -3.83301 -31.5 -11.5s-11.5 -18.167 -11.5 -31.5zM286.001 44.001
c-32 -32 -69.332 -47.999 -111.999 -47.999c-45.333 0 -81.333 12.667 -108 38c-24.667 24 -37 53.167 -37 87.5s7.66699 61.5 23 81.5s34.666 36.333 57.999 49c44 22.667 98.667 34.667 164 36v79c0 7.33301 -5.16699 14.166 -15.5 20.499s-22.5 9.5 -36.5 9.5
c-22.667 0 -36.667 -1 -42 -3l-26 -74l-124 54c13.333 32.667 37.333 60 72 82c36.667 23.333 77 35 121 35c76.667 0 129 -28.333 157 -85c10 -20 15 -45.333 15 -76v-225c0 -14.667 6 -22 18 -22l15 2l18 -56c-25.333 -22 -52 -33 -80 -33c-37.333 0 -64 16 -80 48z
M274.002 204.002c-80.667 -4 -120.999 -26 -120.999 -66c0 -11.333 3.66699 -21.833 11 -31.5s19.5 -14.5 36.5 -14.5s32.167 5 45.5 15s22.666 20.667 27.999 32v65z" />
    <glyph glyph-name="ae" unicode="&#xe6;" horiz-adv-x="698" 
d="M356 442c38.667 32.667 86.3359 49.001 143.003 49.001c44 0 82.333 -12.333 115 -37c35.333 -26.667 53 -60 53 -100c0 -56.667 -21.667 -98 -65 -124c-36 -22 -85.667 -33 -149 -33h-27c-8.66699 0 -16.667 0.333008 -24 1c4 -30 15.167 -55.333 33.5 -76
s45.5 -31 81.5 -31c33.333 0 67.666 11.333 102.999 34c9.33301 6 17 12 23 18l23 -87c-17.333 -22.667 -52.333 -40.667 -105 -54c-18 -4 -37.333 -6 -58 -6c-77.333 0 -136.666 26.333 -177.999 79c-17.333 -22 -39.333 -40.667 -66 -56s-53.334 -23 -80.001 -23
s-49 3.33301 -67 10s-33.333 16 -46 28c-24.667 24 -37 53.167 -37 87.5s7.66699 61.5 23 81.5s34.666 36.333 57.999 49c44 22.667 98.667 34.667 164 36v79c0 7.33301 -5.16699 14.166 -15.5 20.499s-22.5 9.5 -36.5 9.5c-22.667 0 -36.667 -1 -42 -3l-26 -74l-124 54
c13.333 32.667 37.333 60 72 82c36.667 23.333 77 35 121 35c57.333 0 101.666 -16.333 132.999 -49zM403.002 282.001c3.33301 -0.666992 8.33301 -1 15 -1h18c48 0 81.333 12 100 36c6.66699 8.66699 10 20.167 10 34.5s-4.16699 25.5 -12.5 33.5s-18.833 12 -31.5 12
s-24.667 -3.16699 -36 -9.5s-21.333 -14.833 -30 -25.5c-19.333 -21.333 -30.333 -48 -33 -80zM274.002 204.001c-80.667 -4 -120.998 -25.999 -120.998 -65.999c0 -11.333 3.66699 -21.833 11 -31.5s19.666 -14.5 36.999 -14.5s32.666 5.16699 45.999 15.5
s22.333 21.166 27 32.499v64z" />
    <glyph glyph-name="ccedilla" unicode="&#xe7;" horiz-adv-x="431" 
d="M267 -38c50.667 -11.333 75.998 -40.334 75.998 -87.001c0 -27.333 -11 -50.166 -33 -68.499s-53.333 -27.5 -94 -27.5c-32 0 -62.333 6 -91 18l34 74l55 -40c18 0 32.667 6.33301 44 19c5.33301 5.33301 8 13 8 23c0 32.667 -23.333 49 -70 49l-12 16l21 62
c-79.333 16.667 -132.333 62.667 -159 138c-10 27.333 -15 62.5 -15 105.5s6.66699 81 20 114s30.333 59.5 51 79.5c38 36 87 54 147 54c50 0 91.667 -13 125 -39c16 -13.333 30 -30 42 -50l-121 -65l-43 60c-30.667 0 -54.5 -14.333 -71.5 -43
s-25.5 -67.334 -25.5 -116.001c0 -67.333 21 -112.333 63 -135c14.667 -8 30.667 -12 48 -12s32 1.83301 44 5.5s22.833 8 32.5 13s17.834 10.333 24.501 16l16 13.5c1.33301 -4.66699 3.33301 -11 6 -19l8 -25c2.66699 -8.66699 5 -17 7 -25s3.66699 -14 5 -18
c-31.333 -31.333 -74.666 -49.666 -129.999 -54.999z" />
    <glyph glyph-name="egrave" unicode="&#xe8;" horiz-adv-x="454" 
d="M248 491c-23.333 0 -48.332 -4.83203 -74.999 -14.499s-50.334 -24.834 -71.001 -45.501c-48 -46.667 -72 -110.667 -72 -192c0 -77.333 23.667 -138.333 71 -183c42.667 -40 94.667 -60 156 -60c36.667 0 71.667 7 105 21c27.333 11.333 46.666 24.333 57.999 39l-23 87
c-12 -11.333 -27.333 -22.833 -46 -34.5s-40.667 -17.5 -66 -17.5s-45.333 2.83301 -60 8.5s-26.667 13.167 -36 22.5c-18 18 -29 43.333 -33 76c7.33301 -0.666992 15.333 -1 24 -1h27c62.667 0 113.334 12.333 152.001 37c43.333 27.333 65 67.333 65 120
c0 44 -18 78.667 -54 104c-32 22 -72.667 33 -122 33zM295.001 509.001l-193 121l77 106l36 -14l126 -161zM157.001 282.001c2.66699 32 13.668 58.667 33.001 80c19.333 22.667 41 34 65 34c13.333 0 24.333 -3.83301 33 -11.5s13 -18.667 13 -33
s-3.33301 -25.833 -10 -34.5s-15.334 -15.667 -26.001 -21c-20 -10 -45 -15 -75 -15h-18c-6.66699 0 -11.667 0.333008 -15 1z" />
    <glyph glyph-name="eacute" unicode="&#xe9;" horiz-adv-x="454" 
d="M156 198c9.33301 -71.333 49.667 -107 121 -107c30.667 0 55.334 5.83301 74.001 17.5s34 23.167 46 34.5l23 -87c-18.667 -24.667 -54 -42.667 -106 -54c-17.333 -4 -38.333 -6 -63 -6s-50.5 5 -77.5 15s-51.167 25 -72.5 45c-47.333 44.667 -71 105.667 -71 183
c0 81.333 24 145.333 72 192c40 40 90.333 60 151 60c46 0 85 -11 117 -33c36 -25.333 54 -60 54 -104c0 -52.667 -21.667 -92.667 -65 -120c-38.667 -24.667 -89.334 -37 -152.001 -37h-27c-8.66699 0 -16.667 0.333008 -24 1zM135.001 561l126 161l36 14l77 -106
l-193 -121zM157.001 282c3.33301 -0.666992 8.33301 -1 15 -1h18c48.667 0 82.334 12 101.001 36c6.66699 8.66699 10 20.167 10 34.5s-4.33301 25.333 -13 33s-19.334 11.5 -32.001 11.5s-24.667 -3 -36 -9s-21.333 -14.333 -30 -25c-19.333 -21.333 -30.333 -48 -33 -80z
" />
    <glyph glyph-name="ecircumflex" unicode="&#xea;" horiz-adv-x="454" 
d="M156 198c9.33301 -71.333 49.667 -107 121 -107c30.667 0 55.334 5.83301 74.001 17.5s34 23.167 46 34.5l23 -87c-18.667 -24.667 -54 -42.667 -106 -54c-17.333 -4 -38.333 -6 -63 -6s-50.5 5 -77.5 15s-51.167 25 -72.5 45c-47.333 44.667 -71 105.667 -71 183
c0 81.333 24 145.333 72 192c40 40 90.333 60 151 60c46 0 85 -11 117 -33c36 -25.333 54 -60 54 -104c0 -52.667 -21.667 -92.667 -65 -120c-38.667 -24.667 -89.334 -37 -152.001 -37h-27c-8.66699 0 -16.667 0.333008 -24 1zM103.001 541l133 159h33l134 -160l-6 -11h-78
l-67 52l-67 -52h-77zM157.001 282c3.33301 -0.666992 8.33301 -1 15 -1h18c48.667 0 82.334 12 101.001 36c6.66699 8.66699 10 20.167 10 34.5s-4.33301 25.333 -13 33s-19.334 11.5 -32.001 11.5s-24.667 -3 -36 -9s-21.333 -14.333 -30 -25
c-19.333 -21.333 -30.333 -48 -33 -80z" />
    <glyph glyph-name="edieresis" unicode="&#xeb;" horiz-adv-x="454" 
d="M156 198c9.33301 -71.333 49.667 -107 121 -107c30.667 0 55.334 5.83301 74.001 17.5s34 23.167 46 34.5l23 -87c-18.667 -24.667 -54 -42.667 -106 -54c-17.333 -4 -38.333 -6 -63 -6s-50.5 5 -77.5 15s-51.167 25 -72.5 45c-47.333 44.667 -71 105.667 -71 183
c0 81.333 24 145.333 72 192c40 40 90.333 60 151 60c46 0 85 -11 117 -33c36 -25.333 54 -60 54 -104c0 -52.667 -21.667 -92.667 -65 -120c-38.667 -24.667 -89.334 -37 -152.001 -37h-27c-8.66699 0 -16.667 0.333008 -24 1zM263.001 634c0 17.333 6 32 18 44
s26.667 18 44 18s32 -6 44 -18s18 -26.667 18 -44s-6 -32 -18 -44s-26.667 -18 -44 -18s-32 6 -44 18s-18 26.667 -18 44zM102.001 634c0 17.333 6 32 18 44s26.667 18 44 18s32 -6 44 -18s18 -26.667 18 -44s-6 -32 -18 -44s-26.667 -18 -44 -18s-32 6 -44 18
s-18 26.667 -18 44zM157.001 282c3.33301 -0.666992 8.33301 -1 15 -1h18c48.667 0 82.334 12 101.001 36c6.66699 8.66699 10 20.167 10 34.5s-4.33301 25.333 -13 33s-19.334 11.5 -32.001 11.5s-24.667 -3 -36 -9s-21.333 -14.333 -30 -25
c-19.333 -21.333 -30.333 -48 -33 -80z" />
    <glyph glyph-name="igrave" unicode="&#xec;" horiz-adv-x="288" 
d="M175 492l-149 -26l11 -68h51v-321l-56 -13l11 -64h221v64l-55 11v381zM215 509l-193 121l77 106l36 -14l126 -161z" />
    <glyph glyph-name="iacute" unicode="&#xed;" horiz-adv-x="288" 
d="M26 466l149 26l34 -36v-381l55 -11v-64h-221l-11 64l56 13v321h-51zM26 561l126 161l36 14l77 -106l-193 -121z" />
    <glyph glyph-name="icircumflex" unicode="&#xee;" horiz-adv-x="288" 
d="M-4 541l133 159h33l134 -160l-6 -11h-78l-67 52l-67 -52h-77zM26 466l149 26l34 -36v-381l55 -11v-64h-221l-11 64l56 13v321h-51z" />
    <glyph glyph-name="idieresis" unicode="&#xef;" horiz-adv-x="288" 
d="M-4 634c0 17.333 6 32 18 44s26.667 18 44 18s32 -6 44 -18s18 -26.667 18 -44s-6 -32 -18 -44s-26.667 -18 -44 -18s-32 6 -44 18s-18 26.667 -18 44zM147 634c0 17.333 6 32 18 44s26.667 18 44 18s32 -6 44 -18s18 -26.667 18 -44s-6 -32 -18 -44s-26.667 -18 -44 -18
s-32 6 -44 18s-18 26.667 -18 44zM26 466l149 26l34 -36v-381l55 -11v-64h-221l-11 64l56 13v321h-51z" />
    <glyph glyph-name="eth" unicode="&#xf0;" horiz-adv-x="545" 
d="M203 582c-16.667 9.33301 -40 20.335 -70 33.002l52 121c49.333 -18.667 92 -41 128 -67l83 66l66 -102l-63 -38c74 -80 111 -169.667 111 -269c0 -79.333 -15.667 -149.333 -47 -210c-26 -48.667 -64.333 -83.334 -115 -104.001c-26.667 -10.667 -57.5 -16 -92.5 -16
s-66.5 6 -94.5 18s-51.667 28 -71 48c-40.667 43.333 -61 95.333 -61 156c0 69.333 19 126.166 57 170.499s88 66.5 150 66.5c56 0 100.333 -15.667 133 -47c-16 44.667 -44.667 84 -86 118l-113 -67l-37 67zM263 101.002c69.333 0 108.669 51.002 118.002 153.002
c-4.66699 34.667 -19.334 61 -44.001 79c-20.667 15.333 -42.834 23 -66.501 23s-42.667 -3.83301 -57 -11.5s-25.833 -17.834 -34.5 -30.501c-16 -22.667 -24 -52.334 -24 -89.001c0 -32.667 9.66699 -61 29 -85c22 -26 48.333 -39 79 -39z" />
    <glyph glyph-name="ntilde" unicode="&#xf1;" horiz-adv-x="555" 
d="M465 628c-34 -48.667 -67.333 -72.999 -100 -72.999c-16 0 -32.667 4.66699 -50 14s-30.5 16.166 -39.5 20.499s-20.5 6.5 -34.5 6.5s-25.833 -5.16699 -35.5 -15.5s-16.167 -21.166 -19.5 -32.499l-64 42l1 19c13.333 33.333 37 57.666 71 72.999c14 6 28.667 9 44 9
s29 -2.16699 41 -6.5s23 -9 33 -14s18.667 -10 26 -15s13 -7.83301 17 -8.5l37 51zM26 466.001l148 26l35 -37c12.667 9.33301 29.667 17.666 51 24.999s42.666 11 63.999 11s41.333 -2.66699 60 -8s35 -13.333 49 -24c30.667 -23.333 46 -56.666 46 -99.999v-286l55 -9
l-1 -64h-225v64l50 11v256c0 41.333 -20.667 62 -62 62c-27.333 0 -52.666 -9 -75.999 -27c-5.33301 -4 -9 -7.33301 -11 -10v-281l57 -12l-1 -63h-222l-11 64l56 13v321h-51z" />
    <glyph glyph-name="ograve" unicode="&#xf2;" 
d="M29 246c0 -77.333 23 -139.333 69 -186c41.333 -42.667 91.666 -64 150.999 -64c60 0 110.667 21.333 152 64c46 46.667 69 108.667 69 186c0 76 -23 137 -69 183c-41.333 41.333 -92 62 -152 62c-59.333 0 -109.666 -20.667 -150.999 -62c-46 -46 -69 -107 -69 -183z
M153 240c0 79.333 19.667 128.667 59 148c11.333 6 23.666 9 36.999 9c45.333 0 75 -28.333 89 -85c5.33301 -20 8 -44 8 -72c0 -78 -20 -125.333 -60 -142c-11.333 -5.33301 -23.666 -8 -36.999 -8c-45.333 0 -75 26.667 -89 80c-4.66699 18.667 -7 42 -7 70zM310 509.001
l-193 121l77 106l36 -14l126 -161z" />
    <glyph glyph-name="oacute" unicode="&#xf3;" 
d="M29 246c0 76 23 137 69 183c41.333 41.333 91.666 62 150.999 62c60 0 110.667 -20.667 152 -62c46 -46 69 -107 69 -183c0 -77.333 -23 -139.333 -69 -186c-41.333 -42.667 -92 -64 -152 -64c-59.333 0 -109.666 21.333 -150.999 64c-46 46.667 -69 108.667 -69 186z
M153 240c0 -77.333 19.668 -124.667 59.001 -142c11.333 -5.33301 23.666 -8 36.999 -8c46 0 75.667 26.667 89 80c5.33301 18.667 8 42 8 70c0 80 -20 129.333 -60 148c-11.333 6 -23.666 9 -36.999 9c-44.667 0 -74.334 -28.333 -89.001 -85c-4.66699 -20 -7 -44 -7 -72z
M143.001 560.999l126 161l36 14l77 -106l-193 -121z" />
    <glyph glyph-name="ocircumflex" unicode="&#xf4;" 
d="M96 541l133 159h33l134 -160l-6 -11h-78l-67 52l-67 -52h-77zM29 246c0 76 23 137 69 183c41.333 41.333 91.666 62 150.999 62c60 0 110.667 -20.667 152 -62c46 -46 69 -107 69 -183c0 -77.333 -23 -139.333 -69 -186c-41.333 -42.667 -92 -64 -152 -64
c-59.333 0 -109.666 21.333 -150.999 64c-46 46.667 -69 108.667 -69 186zM153 240c0 -77.333 19.668 -124.667 59.001 -142c11.333 -5.33301 23.666 -8 36.999 -8c46 0 75.667 26.667 89 80c5.33301 18.667 8 42 8 70c0 80 -20 129.333 -60 148
c-11.333 6 -23.666 9 -36.999 9c-44.667 0 -74.334 -28.333 -89.001 -85c-4.66699 -20 -7 -44 -7 -72z" />
    <glyph glyph-name="otilde" unicode="&#xf5;" 
d="M436 627c-34 -48.667 -67.666 -72.999 -100.999 -72.999c-16.667 0 -33.334 4.66699 -50.001 14s-29.5 16.166 -38.5 20.499s-20.5 6.5 -34.5 6.5s-25.833 -5.16699 -35.5 -15.5s-16.167 -21.166 -19.5 -32.499l-64 42l1 19c13.333 33.333 37 57.666 71 72.999
c13.333 6 27.833 9 43.5 9s29.5 -2.16699 41.5 -6.5s23 -9 33 -14s18.667 -10 26 -15s13 -7.83301 17 -8.5l36 51zM29.001 246.001c0 76 23 137 69 183c41.333 41.333 91.666 62 150.999 62c60 0 110.667 -20.667 152 -62c46 -46 69 -107 69 -183
c0 -77.333 -23 -139.333 -69 -186c-41.333 -42.667 -92 -64 -152 -64c-59.333 0 -109.666 21.333 -150.999 64c-46 46.667 -69 108.667 -69 186zM153.001 240.001c0 -77.333 19.668 -124.667 59.001 -142c11.333 -5.33301 23.666 -8 36.999 -8c46 0 75.667 26.667 89 80
c5.33301 18.667 8 42 8 70c0 80 -20 129.333 -60 148c-11.333 6 -23.666 9 -36.999 9c-44.667 0 -74.334 -28.333 -89.001 -85c-4.66699 -20 -7 -44 -7 -72z" />
    <glyph glyph-name="odieresis" unicode="&#xf6;" 
d="M105 634c0 17.333 6 32 18 44s26.667 18 44 18s32 -6 44 -18s18 -26.667 18 -44s-6 -32 -18 -44s-26.667 -18 -44 -18s-32 6 -44 18s-18 26.667 -18 44zM267 634c0 17.333 6 32 18 44s26.667 18 44 18s32 -6 44 -18s18 -26.667 18 -44s-6 -32 -18 -44
s-26.667 -18 -44 -18s-32 6 -44 18s-18 26.667 -18 44zM29 246c0 76 23 137 69 183c41.333 41.333 91.666 62 150.999 62c60 0 110.667 -20.667 152 -62c46 -46 69 -107 69 -183c0 -77.333 -23 -139.333 -69 -186c-41.333 -42.667 -92 -64 -152 -64
c-59.333 0 -109.666 21.333 -150.999 64c-46 46.667 -69 108.667 -69 186zM153 240c0 -77.333 19.668 -124.667 59.001 -142c11.333 -5.33301 23.666 -8 36.999 -8c46 0 75.667 26.667 89 80c5.33301 18.667 8 42 8 70c0 80 -20 129.333 -60 148
c-11.333 6 -23.666 9 -36.999 9c-44.667 0 -74.334 -28.333 -89.001 -85c-4.66699 -20 -7 -44 -7 -72z" />
    <glyph glyph-name="divide" unicode="&#xf7;" horiz-adv-x="419" 
d="M136 84c0 18.667 6.5 34.334 19.5 47.001s28.833 19 47.5 19s34.334 -6.33301 47.001 -19s19 -28.334 19 -47.001s-6.33301 -34.5 -19 -47.5s-28.334 -19.5 -47.001 -19.5s-34.5 6.5 -47.5 19.5s-19.5 28.833 -19.5 47.5zM155.5 358
c-13 13.333 -19.5 29.166 -19.5 47.499s6.5 33.833 19.5 46.5s28.833 19 47.5 19s34.334 -6.33301 47.001 -19s19 -28.167 19 -46.5s-6.33301 -34.166 -19 -47.499s-28.334 -20 -47.001 -20s-34.5 6.66699 -47.5 20zM32 294h355v-100h-355v100z" />
    <glyph glyph-name="oslash" unicode="&#xf8;" 
d="M107 51c-52 47.333 -78 112.333 -78 195c0 76 23 137 69 183c41.333 41.333 91.666 62 150.999 62c12 0 24 -1 36 -3l40 97h118l-1 -13l-54 -132c54.667 -45.333 82 -110 82 -194c0 -77.333 -23 -139.333 -69 -186c-41.333 -42.667 -92 -64 -152 -64
c-13.333 0 -26.666 1.33301 -39.999 4l-42 -105h-115l-3 13zM338 170c5.33301 18.667 8 42.168 8 70.501s-3 53.166 -9 74.499l-88 -225c46 0 75.667 26.667 89 80zM160 312.001c-4.66699 -20 -7 -43.167 -7 -69.5s2 -47.833 6 -64.5l89 219c-44 0 -73.333 -28.333 -88 -85z
" />
    <glyph glyph-name="ugrave" unicode="&#xf9;" horiz-adv-x="539" 
d="M482 83c-10.667 0 -16.0029 7.33008 -16.0029 21.9971v349l-35 38l-143 -27l12 -67l45 3v-257c-5.33301 -13.333 -15.666 -25.333 -30.999 -36s-32.666 -16 -51.999 -16s-35.166 6.33301 -47.499 19s-18.5 32 -18.5 58v285l-35 38l-148 -27l11 -67h51v-252
c0 -51.333 14 -89.166 42 -113.499s65.667 -36.5 113 -36.5c22 0 44.667 3.83301 68 11.5s42.666 19.834 57.999 36.501c14.667 -32 41.667 -48 81 -48c20.667 0 37.834 4.33301 51.501 13s22.5 15.334 26.5 20.001l-19 56zM303.997 508.997l-193 121l77 106l36 -14
l126 -161z" />
    <glyph glyph-name="uacute" unicode="&#xfa;" horiz-adv-x="539" 
d="M437 -4c-39.333 0 -66.3301 16.0029 -80.9971 48.0029c-15.333 -16.667 -34.666 -28.834 -57.999 -36.501s-46 -11.5 -68 -11.5c-47.333 0 -85 12.167 -113 36.5s-42 62.166 -42 113.499v252h-51l-11 67l148 27l35 -38v-285c0 -26 6.16699 -45.333 18.5 -58
s28.166 -19 47.499 -19s36.666 5.33301 51.999 16s25.666 22.667 30.999 36v257l-45 -3l-12 67l143 27l35 -38v-349c0 -14.667 5.33301 -22 16 -22l14 2l19 -56c-4 -4.66699 -12.833 -11.334 -26.5 -20.001s-30.834 -13 -51.501 -13zM137.003 561.003l126 161l36 14l77 -106
l-193 -121z" />
    <glyph glyph-name="ucircumflex" unicode="&#xfb;" horiz-adv-x="539" 
d="M112 541l133 159h33l134 -160l-6 -11h-78l-67 52l-67 -52h-77zM437 -4c-39.333 0 -66.3301 16.0029 -80.9971 48.0029c-15.333 -16.667 -34.666 -28.834 -57.999 -36.501s-46 -11.5 -68 -11.5c-47.333 0 -85 12.167 -113 36.5s-42 62.166 -42 113.499v252h-51l-11 67
l148 27l35 -38v-285c0 -26 6.16699 -45.333 18.5 -58s28.166 -19 47.499 -19s36.666 5.33301 51.999 16s25.666 22.667 30.999 36v257l-45 -3l-12 67l143 27l35 -38v-349c0 -14.667 5.33301 -22 16 -22l14 2l19 -56c-4 -4.66699 -12.833 -11.334 -26.5 -20.001
s-30.834 -13 -51.501 -13z" />
    <glyph glyph-name="udieresis" unicode="&#xfc;" horiz-adv-x="539" 
d="M121 634c0 17.333 6 32 18 44s26.667 18 44 18s32 -6 44 -18s18 -26.667 18 -44s-6 -32 -18 -44s-26.667 -18 -44 -18s-32 6 -44 18s-18 26.667 -18 44zM283 634c0 17.333 6 32 18 44s26.667 18 44 18s32 -6 44 -18s18 -26.667 18 -44s-6 -32 -18 -44
s-26.667 -18 -44 -18s-32 6 -44 18s-18 26.667 -18 44zM437 -4c-39.333 0 -66.3301 16.0029 -80.9971 48.0029c-15.333 -16.667 -34.666 -28.834 -57.999 -36.501s-46 -11.5 -68 -11.5c-47.333 0 -85 12.167 -113 36.5s-42 62.166 -42 113.499v252h-51l-11 67l148 27l35 -38
v-285c0 -26 6.16699 -45.333 18.5 -58s28.166 -19 47.499 -19s36.666 5.33301 51.999 16s25.666 22.667 30.999 36v257l-45 -3l-12 67l143 27l35 -38v-349c0 -14.667 5.33301 -22 16 -22l14 2l19 -56c-4 -4.66699 -12.833 -11.334 -26.5 -20.001s-30.834 -13 -51.501 -13z
" />
    <glyph glyph-name="yacute" unicode="&#xfd;" 
d="M496 455l-70.002 -198.001l-72 -205.5l-33.5 -95.5l-27.5 -76.5l-22 -59c-6.66699 -17.667 -15.834 -33.667 -27.501 -48s-23.5 -25.166 -35.5 -32.499c-16 -9.33301 -35.333 -14 -58 -14c-29.333 0 -58.666 7.66699 -87.999 23c-12 6 -23 13.667 -33 23l54 84
c28.667 -24 48.334 -36 59.001 -36s19.834 4.33301 27.501 13s15.5 24 23.5 46l22 60l-169 468h-38l-8 72l150 12l130 -372l37.5 103.5l35 95.5l31.5 89h-46l-8 73l146 11zM122.998 560.999l126 161l36 14l77 -106l-193 -121z" />
    <glyph glyph-name="thorn" unicode="&#xfe;" horiz-adv-x="501" 
d="M186 472c25.333 12.667 53.667 19.001 85 19.001s59 -5.5 83 -16.5s44.667 -26.833 62 -47.5c36 -42.667 54 -101.334 54 -176.001c0 -90.667 -23.333 -157.667 -70 -201c-39.333 -36 -90.333 -54 -153 -54c-20 0 -41 2.33301 -63 7l2 -10v-175l119 -26v-65h-284l-6 63
l51 15v843h-52l-11 68l149 20l34 -35v-229zM186.001 103.001c13.333 -8.66699 33.6689 -13 61.002 -13s50.666 12.5 69.999 37.5s29 64 29 117s-9.16699 91.667 -27.5 116s-40.833 36.5 -67.5 36.5s-48.334 -6 -65.001 -18v-276z" />
    <glyph glyph-name="ydieresis" unicode="&#xff;" 
d="M496 455l-70.002 -198.001l-72 -205.5l-33.5 -95.5l-27.5 -76.5l-22 -59c-6.66699 -17.667 -15.834 -33.667 -27.501 -48s-23.5 -25.166 -35.5 -32.499c-16 -9.33301 -35.333 -14 -58 -14c-29.333 0 -58.666 7.66699 -87.999 23c-12 6 -23 13.667 -33 23l54 84
c28.667 -24 48.334 -36 59.001 -36s19.834 4.33301 27.501 13s15.5 24 23.5 46l22 60l-169 468h-38l-8 72l150 12l130 -372l37.5 103.5l35 95.5l31.5 89h-46l-8 73l146 11zM109.998 633.999c0 17.333 6 32 18 44s26.667 18 44 18s32 -6 44 -18s18 -26.667 18 -44
s-6 -32 -18 -44s-26.667 -18 -44 -18s-32 6 -44 18s-18 26.667 -18 44zM270.998 633.999c0 17.333 6 32 18 44s26.667 18 44 18s32 -6 44 -18s18 -26.667 18 -44s-6 -32 -18 -44s-26.667 -18 -44 -18s-32 6 -44 18s-18 26.667 -18 44z" />
    <glyph glyph-name="OE" unicode="&#x152;" horiz-adv-x="879" 
d="M377 0l-49 -0.999023c-92.667 0 -165 32.333 -217 97c-50 61.333 -75 144.333 -75 249c0 101.333 27 184.666 81 249.999c52.667 64 119.667 96 201 96h503l19 -204h-78l-41 99h-162v-178h152v-105h-152v-198h169l37 99h79l-21 -204h-446zM428 562.001
c-16 16 -40.5 24.001 -73.5 24.001s-60.5 -6.16699 -82.5 -18.5s-40.333 -29.5 -55 -51.5c-29.333 -44 -44 -101.667 -44 -173c0 -112.667 31.667 -186.334 95 -221.001c22 -12 44 -18 66 -18c42.667 0 74 8.33301 94 25v433z" />
    <glyph glyph-name="oe" unicode="&#x153;" horiz-adv-x="770" 
d="M408 421c42.667 46.667 96.334 70 161.001 70c46 0 85 -11 117 -33c36 -25.333 54 -60 54 -104c0 -52.667 -21.667 -92.667 -65 -120c-38.667 -24.667 -89.334 -37 -152.001 -37h-27c-8.66699 0 -16.667 0.333008 -24 1c9.33301 -71.333 49.666 -107 120.999 -107
c30.667 0 55.334 5.83301 74.001 17.5s34 23.167 46 34.5l23 -87c-18.667 -24.667 -54 -42.667 -106 -54c-17.333 -4 -36.333 -6 -57 -6c-67.333 0 -123 23.333 -167 70c-42.667 -46.667 -95 -70 -157 -70c-59.333 0 -109.666 21.333 -150.999 64
c-46 46.667 -69 108.667 -69 186c0 76 23 137 69 183c41.333 41.333 92.666 62 153.999 62s113.333 -23.333 156 -70zM153 240c0 -77.333 19.668 -124.667 59.001 -142c11.333 -5.33301 23.666 -8 36.999 -8c46 0 75.667 26.667 89 80c5.33301 18.667 8 42 8 70
c0 80 -20 129.333 -60 148c-11.333 6 -23.666 9 -36.999 9c-44.667 0 -74.334 -28.333 -89.001 -85c-4.66699 -20 -7 -44 -7 -72zM473.001 281.999c3.33301 -0.666992 8.33301 -1 15 -1h18c48.667 0 82.334 12 101.001 36c6.66699 8.66699 10 20.167 10 34.5
s-4.33301 25.333 -13 33s-19.334 11.5 -32.001 11.5s-24.667 -3 -36 -9s-21.333 -14.333 -30 -25c-19.333 -21.333 -30.333 -48 -33 -80z" />
    <glyph glyph-name="endash" unicode="&#x2013;" horiz-adv-x="476" 
d="M53 396h371v-95h-371v95z" />
    <glyph glyph-name="emdash" unicode="&#x2014;" horiz-adv-x="626" 
d="M53 396h521v-95h-521v95z" />
    <glyph glyph-name="quoteleft" unicode="&#x2018;" horiz-adv-x="219" 
d="M185 697l-34.998 -128l41 -120l-130 -47c-8.66699 21.333 -14.834 45.166 -18.501 71.499s-5.5 47.5 -5.5 63.5s1.66699 33.667 5 53s7.66602 38 12.999 56c10 32.667 22.667 62.334 38 89.001l88 -28z" />
    <glyph glyph-name="quoteright" unicode="&#x2019;" horiz-adv-x="220" 
d="M184 738c6.66699 -26.667 9.99902 -55 9.99902 -85s-2.66699 -56.167 -8 -78.5s-12 -43.833 -20 -64.5c-15.333 -38.667 -33.666 -71.667 -54.999 -99l-84 39l-3 11l51 122l-26 125z" />
    <glyph glyph-name="quotesinglbase" unicode="&#x201a;" horiz-adv-x="237" 
d="M171 204c14 -56 20.999 -96.668 20.999 -122.001s-2.66699 -49.166 -8 -71.499s-12 -43.833 -20 -64.5c-15.333 -38.667 -33.666 -71.667 -54.999 -99l-84 39l-3 11l51 122l-37 155z" />
    <glyph glyph-name="quotedblleft" unicode="&#x201c;" horiz-adv-x="401" 
d="M372 687l-45.998 -125l44 -153l-133 -36c-1.33301 2.66699 -3.33301 9.66699 -6 21l-9 38c-8 33.333 -12 60 -12 80s2.16699 40.833 6.5 62.5s10.166 42.167 17.499 61.5c13.333 38 29.666 70.333 48.999 97l85 -36zM200.002 689l-47 -141.999l46 -165l-133 -36
c-6 12 -12.333 37.5 -19 76.5s-10 66.167 -10 81.5s2.33301 34.666 7 57.999s10.667 46 18 68c13.333 42 29.333 77 48 105l86 -35z" />
    <glyph glyph-name="quotedblright" unicode="&#x201d;" horiz-adv-x="397" 
d="M178 720c11.333 -45.333 16.999 -80 16.999 -104s-2.66699 -47.167 -8 -69.5s-12 -43.833 -20 -64.5c-15.333 -38.667 -33.666 -71.667 -54.999 -99l-84 39l-3 11l51 122l-33 135zM349.999 740c12.667 -50.667 19.001 -88.668 19.001 -114.001
s-2.66699 -50.166 -8 -74.499s-12.333 -47.5 -21 -69.5c-16.667 -46 -35.334 -82.333 -56.001 -109l-84 39l-3 11l53 140l-35 147z" />
    <glyph glyph-name="quotedblbase" unicode="&#x201e;" horiz-adv-x="408" 
d="M168 204c14 -56 20.999 -96.668 20.999 -122.001s-2.66699 -49.166 -8 -71.499s-12 -43.833 -20 -64.5c-15.333 -38.667 -33.666 -71.667 -54.999 -99l-84 39l-3 11l51 122l-37 155zM190.999 -113.001l53.001 140l-39 167l135 30c6.66699 -26 12.167 -53.167 16.5 -81.5
s6.5 -50.5 6.5 -66.5s-2.66699 -36.167 -8 -60.5s-12.333 -47.5 -21 -69.5c-16.667 -46 -35.334 -82.333 -56.001 -109l-84 39z" />
    <glyph glyph-name="bullet" unicode="&#x2022;" horiz-adv-x="273" 
d="M35 383c0 27.333 9.66699 51.334 29 72.001c19.333 20 43.333 30 72 30c28 0 52 -10 72 -30s30 -44 30 -72c0 -28.667 -10 -52.334 -30 -71.001c-20.667 -20 -44.667 -30 -72 -30c-28 0 -51.833 9.83301 -71.5 29.5s-29.5 43.5 -29.5 71.5z" />
    <glyph glyph-name="guilsinglleft" unicode="&#x2039;" horiz-adv-x="327" 
d="M2 314l263 236l5 -2v-131l-119 -117l119 -116v-131l-6 -3l-262 238v26z" />
    <glyph glyph-name="guilsinglright" unicode="&#x203a;" horiz-adv-x="327" 
d="M325 288l-262 -238l-6 3v131l119 116l-119 117v131l5 2l263 -236v-26z" />
    <glyph glyph-name="Euro" unicode="&#x20ac;" horiz-adv-x="620" 
d="M590 65c-52.667 -46 -116 -69 -190 -69c-152 0 -247.333 69.667 -286 209h-83v99h68c-0.666992 5.33301 -1 11 -1 17v29h-67v100h78c16.667 76.667 51 136.667 103 180c48.667 40.667 107.667 61 177 61c58 0 114.333 -8 169 -24c10 -78 16.667 -136.667 20 -176h-81
l-52 89c-5.33301 0.666992 -11.166 1.83398 -17.499 3.50098s-15.833 2.5 -28.5 2.5c-82.667 0 -134.334 -45.333 -155.001 -136h242v-102h-253c0 -14.667 0.666992 -29.334 2 -44.001h251v-99h-231c25.333 -69.333 74 -104 146 -104c34 0 64.333 6.16699 91 18.5
s47 24.5 61 36.5z" />
    <glyph glyph-name=".null" horiz-adv-x="0" 
 />
    <glyph glyph-name="nonmarkingreturn" horiz-adv-x="240" 
 />
    </font>
</defs>
</svg>
